<svg width="21" height="18" viewBox="0 0 21 18" fill="none" xmlns="http://www.w3.org/2000/svg">
<path fill-rule="evenodd" clip-rule="evenodd" d="M0 9C0 9.34093 0.138264 9.6679 0.384378 9.90897C0.630492 10.15 0.964295 10.2855 1.31235 10.2855H16.5173L10.882 15.8028C10.76 15.9223 10.6632 16.0642 10.5972 16.2203C10.5312 16.3765 10.4972 16.5439 10.4972 16.7129C10.4972 16.8819 10.5312 17.0493 10.5972 17.2054C10.6632 17.3616 10.76 17.5035 10.882 17.623C11.0041 17.7425 11.1489 17.8373 11.3083 17.902C11.4678 17.9667 11.6386 18 11.8112 18C11.9837 18 12.1546 17.9667 12.314 17.902C12.4735 17.8373 12.6183 17.7425 12.7403 17.623L20.6144 9.91012C20.7367 9.79071 20.8336 9.64886 20.8998 9.49268C20.9659 9.33651 21 9.16909 21 9C21 8.83091 20.9659 8.66349 20.8998 8.50732C20.8336 8.35114 20.7367 8.20929 20.6144 8.08988L12.7403 0.376985C12.4939 0.135606 12.1597 0 11.8112 0C11.4627 0 11.1285 0.135606 10.882 0.376985C10.6356 0.618364 10.4972 0.945745 10.4972 1.28711C10.4972 1.62847 10.6356 1.95585 10.882 2.19723L16.5173 7.71452H1.31235C0.964295 7.71452 0.630492 7.84995 0.384378 8.09103C0.138264 8.3321 0 8.65907 0 9Z" fill="white"/>
</svg>
