<svg width="21" height="18" viewBox="0 0 21 18" fill="none" xmlns="http://www.w3.org/2000/svg">
<path fill-rule="evenodd" clip-rule="evenodd" d="M21 9C21 9.34093 20.8617 9.6679 20.6156 9.90897C20.3695 10.15 20.0357 10.2855 19.6876 10.2855H4.48272L10.118 15.8028C10.24 15.9223 10.3368 16.0642 10.4028 16.2203C10.4688 16.3765 10.5028 16.5439 10.5028 16.7129C10.5028 16.8819 10.4688 17.0493 10.4028 17.2054C10.3368 17.3616 10.24 17.5035 10.118 17.623C9.99595 17.7425 9.85109 17.8373 9.69167 17.902C9.53225 17.9667 9.36138 18 9.18882 18C9.01626 18 8.84539 17.9667 8.68597 17.902C8.52655 17.8373 8.38169 17.7425 8.25967 17.623L0.385553 9.91012C0.263338 9.79071 0.166374 9.64886 0.100214 9.49268C0.0340546 9.33651 0 9.16909 0 9C0 8.83092 0.0340546 8.66349 0.100214 8.50732C0.166374 8.35114 0.263338 8.20929 0.385553 8.08988L8.25967 0.376985C8.5061 0.135606 8.84032 0 9.18882 0C9.53732 0 9.87154 0.135606 10.118 0.376985C10.3644 0.618364 10.5028 0.945745 10.5028 1.28711C10.5028 1.62847 10.3644 1.95585 10.118 2.19723L4.48272 7.71452H19.6876C20.0357 7.71452 20.3695 7.84995 20.6156 8.09103C20.8617 8.3321 21 8.65907 21 9Z" fill="#067164" fill-opacity="0.5"/>
</svg>
