<svg width="223" height="29" viewBox="0 0 223 29" fill="none" xmlns="http://www.w3.org/2000/svg">
<path fill-rule="evenodd" clip-rule="evenodd" d="M99.6636 10.4213H98.687V28.3339H100.152V14.1664H100.479L113.181 28.3339H113.831V10.4213H112.366V23.9366H112.205L99.6636 10.4213ZM94.6163 14.3291C94.4536 11.7235 92.499 10.2585 88.754 10.4213H83.2172V28.3339L84.3566 28.1712L85.4961 28.3339V19.5416H86.4727L93.3117 28.3339L94.7767 28.1712L96.2417 28.3339L95.9162 27.6816L89.0772 19.3788C92.6618 18.7265 94.4536 17.0975 94.6163 14.3291ZM85.4972 18.5649V11.3992H89.2423C91.1968 11.7235 92.1735 12.8653 92.1735 14.6571C92.1735 16.7732 91.034 18.0754 88.9168 18.4021L85.4972 18.5649ZM80.4476 19.0521C80.2848 16.1209 79.307 13.678 77.3536 12.213C75.3892 10.716 72.9832 9.9136 70.5134 9.93179C67.745 9.93179 65.465 10.9085 63.5116 12.5374C61.7199 14.3292 60.7432 16.6104 60.7432 19.3788C60.7432 22.1472 61.7199 24.4261 63.5116 26.055C65.3034 27.8468 67.5822 28.6607 70.3518 28.6607C73.283 28.6607 75.7247 27.8456 77.6792 26.055C79.4709 24.2645 80.2848 21.8205 80.4476 19.0521ZM76.2142 13.5153C77.1909 14.8199 77.842 16.7732 77.842 19.2148C78.0047 21.0066 77.5164 22.7983 76.377 24.5889C74.912 26.705 72.9575 27.8468 70.5134 27.8468C68.3973 27.8468 66.7696 27.1945 65.465 25.7283C64.1627 24.2645 63.3477 22.1472 63.3477 19.7044C63.3477 17.0987 63.9988 14.9814 65.3022 13.3525C66.6044 11.7235 68.3961 10.9085 70.6762 10.9085C73.1202 10.9085 74.9108 11.7235 76.2142 13.5153ZM51.9497 10.4213H46.9012V28.1712H50.6463C53.0891 28.3339 55.0437 28.0084 56.1831 27.1945C57.8121 26.0551 58.4632 24.5889 58.4632 22.7971C58.4632 20.3555 56.997 18.8893 53.7402 18.7265C56.5086 17.9114 57.8121 16.4476 57.8121 14.0036C57.8121 11.5596 56.0203 10.2585 51.9497 10.4213ZM49.1813 11.398H51.1358C54.067 11.398 55.532 12.5374 55.532 14.6559C55.532 15.9581 54.8809 17.0976 53.5787 17.7499L49.1813 18.237V11.398V19.2137H50.6463C54.2298 19.2137 56.0191 20.5183 56.0191 23.2867C56.0191 24.4261 55.5308 25.4027 54.7169 26.055C53.9018 26.8701 52.9252 27.1945 51.623 27.1945H49.1801V11.398H49.1813ZM40.2238 28.6619L33.2208 9.7702L0 0L12.7026 28.9862C19.2172 28.1724 28.3363 28.0096 40.2238 28.6619Z" fill="white"/>
<path fill-rule="evenodd" clip-rule="evenodd" d="M205.027 21.495H198.025V28.1724H205.027V21.495Z" fill="white"/>
<path fill-rule="evenodd" clip-rule="evenodd" d="M189.72 28.1723L190.859 28.3351L188.743 10.4225H188.254L180.762 24.1029C178.646 20.845 176.202 16.2848 173.271 10.4225H172.619L170.016 28.3351L170.992 28.1723L171.969 28.3351C171.969 26.5434 172.293 21.9832 173.108 14.8198L179.947 28.1723H180.274C181.576 25.0784 183.858 20.5194 187.113 14.8198L188.418 28.3351L189.72 28.1723V28.1723ZM168.387 28.1723V26.705L165.943 26.8701L161.22 27.1945V10.4213H158.779V28.1723H168.387V28.1723ZM156.172 19.052C156.172 16.1209 155.033 13.678 153.078 12.213C151.287 10.7468 149.005 9.93176 146.237 9.93176C143.469 9.93176 141.19 10.9084 139.398 12.5374C137.444 14.3291 136.467 16.6104 136.467 19.3788C136.467 22.1472 137.444 24.4261 139.235 26.055C140.862 27.8468 143.306 28.6606 146.237 28.6606C149.005 28.6606 151.611 27.8456 153.403 26.055C155.195 24.2645 156.172 21.8204 156.172 19.052V19.052ZM151.938 13.5152C153.08 14.8198 153.567 16.7732 153.567 19.2148C153.73 21.0066 153.08 22.7983 152.101 24.5888C150.637 26.7049 148.682 27.8468 146.238 27.8468C144.284 27.8468 142.493 27.1945 141.191 25.7283C139.725 24.2645 139.075 22.1472 139.075 19.7043C139.075 17.0987 139.725 14.9814 141.029 13.3525C142.332 11.7235 144.123 10.9084 146.566 10.9084C148.844 10.9084 150.636 11.7235 151.938 13.5152V13.5152ZM133.7 10.4213H131.418V17.9126H120.347V10.4213H118.066V28.3339H120.347V19.3788H131.418V28.3339H133.7V10.4213Z" fill="white"/>
<path fill-rule="evenodd" clip-rule="evenodd" d="M198.025 17.2604H205.027V10.5841H198.025V17.2604ZM222.29 28.334V21.4949H209.586V28.334H222.29ZM222.127 17.2604V10.5841H209.586V17.2604H222.127Z" fill="white"/>
</svg>
