<svg width="152" height="33" viewBox="0 0 152 33" fill="none" xmlns="http://www.w3.org/2000/svg">
<path fill-rule="evenodd" clip-rule="evenodd" d="M8.82721 32.3133C3.92391 32.3133 0 28.0325 0 19.4729C0 11.2693 4.01208 6.81103 8.91749 6.81103C11.2353 6.81103 12.9296 7.34535 14.0885 8.23762L13.108 10.4673C12.3942 9.9319 11.1461 9.39653 9.18412 9.39653C5.7074 9.39653 3.29931 12.7851 3.29931 19.6514C3.29931 25.1793 5.17204 29.817 8.73799 29.817C10.2538 29.817 10.8784 29.6386 11.3245 29.3698V20.3652H7.93494V17.9571H14.4443V30.8877C13.1962 31.779 11.503 32.3133 8.82721 32.3133ZM25.5022 5.38444H23.9864L25.9484 0.569316C27.0181 -0.144503 28.7123 -0.233731 28.8908 0.569316L25.5022 5.38444ZM20.6871 31.9564V7.16689H30.6743V9.66316H23.808V17.955H29.9605V20.3631H23.808V29.458H30.6743V31.9553H20.6871V31.9564ZM45.8324 31.9564L39.323 20.1857H39.2338V31.9564H36.113V8.23657C37.2719 7.43458 39.1446 6.80999 41.3742 6.80999C46.3678 6.80999 48.6856 9.75239 48.6856 14.3891C48.6856 17.8658 45.9217 20.6308 42.9782 20.8995L49.3984 31.9564H45.8324V31.9564ZM41.3742 8.95039C40.3927 8.95039 39.68 9.21807 39.1446 9.39653V19.4729C39.4123 19.5611 39.5907 19.5611 39.9476 19.5611C42.6224 19.5611 45.5658 18.4022 45.5658 14.4793C45.5648 10.9123 44.4059 8.95039 41.3742 8.95039V8.95039ZM54.5715 7.16689H57.7816V31.9564H54.5715V7.16689ZM67.4108 9.66421V17.9561H73.5643V20.3641H67.4108V31.9564H64.2007V7.16689H74.1879V9.66421H67.4108V9.66421ZM86.0478 32.3133C80.4296 32.3133 78.2892 26.5177 78.2892 19.5611C78.2892 12.6958 80.4296 6.81103 86.0478 6.81103C91.5757 6.81103 93.7161 12.6958 93.7161 19.5611C93.7161 26.5177 91.5757 32.3133 86.0478 32.3133V32.3133ZM86.0478 9.3073C82.4808 9.3073 81.5003 14.4793 81.5003 19.4729C81.5003 24.4655 82.3926 29.6386 86.0478 29.6386C89.7029 29.6386 90.5049 24.4655 90.5049 19.4729C90.5049 14.4793 89.6137 9.3073 86.0478 9.3073ZM111.906 31.9564L103.256 13.9429C102.723 12.8722 102.187 11.5359 102.187 11.5359H102.097C102.097 11.5359 102.187 12.784 102.187 13.8537V31.9564H99.5998V7.16689H102.811L110.925 24.1085C111.461 25.2685 111.996 26.5177 111.996 26.5177V7.16689H114.582V31.9564H111.906V31.9564ZM126.709 32.3133C124.122 32.3133 122.071 31.7779 121.001 30.8867V8.23657C122.161 7.43458 124.212 6.80999 126.531 6.80999C132.415 6.80999 135.357 11.7143 135.357 19.2945C135.357 26.8746 132.681 32.3133 126.709 32.3133V32.3133ZM126.44 9.21807C125.46 9.21807 124.657 9.39652 124.122 9.57498V29.3698C124.569 29.5483 125.46 29.7267 126.531 29.7267C130.543 29.7267 132.149 26.1618 132.149 19.2945C132.148 12.6958 130.274 9.21807 126.44 9.21807ZM145.166 32.3133C142.759 32.3133 141.244 31.7779 140.083 30.8867L140.887 28.2991C141.601 28.9247 142.847 29.5472 144.721 29.5472C146.771 29.5472 148.376 28.2109 148.376 25.9823C148.376 23.6635 147.217 22.3272 144.542 20.1867C141.778 18.0463 140.352 15.9059 140.352 13.2312C140.352 9.30835 142.937 6.81103 146.326 6.81103C148.376 6.81103 149.89 7.43563 150.783 8.23762L150.069 10.4673C149.445 9.9319 148.285 9.39653 146.681 9.39653C144.719 9.39653 143.47 10.6447 143.47 12.8733C143.47 15.0137 144.451 16.2628 147.037 18.313C149.801 20.5437 151.673 22.5035 151.673 25.6254C151.675 29.6375 148.999 32.3133 145.166 32.3133V32.3133Z" fill="white"/>
</svg>
