<svg width="211" height="27" viewBox="0 0 211 27" fill="none" xmlns="http://www.w3.org/2000/svg">
<path fill-rule="evenodd" clip-rule="evenodd" d="M48.2038 19.1948C48.2516 21.0408 48.5591 21.6568 49.034 21.822C49.436 21.9643 49.8858 21.9871 50.265 21.9871C50.5246 21.9871 50.667 22.0361 50.667 22.1784C50.667 22.3674 50.454 22.4164 50.1215 22.4164C48.583 22.4164 47.6355 22.3435 47.1857 22.3435C46.9739 22.3435 45.8613 22.4164 44.6292 22.4164C44.3217 22.4164 44.1099 22.3902 44.1099 22.1784C44.1099 22.0361 44.2511 21.9871 44.4891 21.9871C44.7966 21.9871 45.2225 21.9643 45.5538 21.8687C46.1699 21.6796 46.2644 20.9918 46.2884 18.9329L46.5002 4.92355C46.5002 4.45095 46.5719 4.11843 46.8088 4.11843C47.0696 4.11843 47.2837 4.42704 47.6845 4.85409C47.9692 5.16156 51.5666 9.01862 55.0228 12.4498C56.6319 14.06 59.8274 17.4695 60.2293 17.8476H60.3478L60.1109 7.22048C60.087 5.7765 59.8729 5.32555 59.3047 5.08982C58.9494 4.94747 58.3822 4.94747 58.0497 4.94747C57.7662 4.94747 57.6728 4.87686 57.6728 4.73565C57.6728 4.54547 57.9324 4.52156 58.2877 4.52156C59.5187 4.52156 60.6553 4.59216 61.1529 4.59216C61.4137 4.59216 62.311 4.52156 63.4726 4.52156C63.7801 4.52156 64.0158 4.54547 64.0158 4.73565C64.0158 4.87686 63.8735 4.94747 63.5899 4.94747C63.353 4.94747 63.1629 4.94746 62.8793 5.01921C62.2165 5.20938 62.0275 5.70589 62.0036 7.0303L61.7428 21.9654C61.7428 22.4881 61.6483 22.7 61.4353 22.7C61.1757 22.7 60.891 22.4392 60.6302 22.1795C59.1395 20.7583 56.1104 17.6597 53.6483 15.2227C51.0678 12.665 48.4407 9.70644 48.0148 9.25548H47.9441L48.2038 19.1948ZM71.4395 13.4667C71.4395 9.41833 74.1145 4.18789 81.2149 4.18789C87.1081 4.18789 90.7761 7.61905 90.7761 13.0397C90.7761 18.4625 86.9896 22.7432 80.978 22.7432C74.1863 22.7444 71.4395 17.6574 71.4395 13.4667ZM87.4634 13.9165C87.4634 8.61663 84.4103 5.32554 80.5282 5.32554C77.8076 5.32554 74.7056 6.84013 74.7056 12.7333C74.7056 17.6574 77.4284 21.5612 81.9721 21.5612C83.6291 21.5612 87.4634 20.7561 87.4634 13.9165ZM98.5084 6.83898C97.9641 5.53849 97.561 5.27771 96.7103 5.04084C96.3561 4.94518 95.9769 4.94518 95.7879 4.94518C95.5738 4.94518 95.5032 4.87458 95.5032 4.73337C95.5032 4.5432 95.764 4.51928 96.1193 4.51928C97.3742 4.51928 98.7225 4.58989 99.5515 4.58989C100.143 4.58989 101.279 4.51928 102.462 4.51928C102.746 4.51928 103.007 4.56597 103.007 4.73337C103.007 4.8985 102.865 4.94518 102.652 4.94518C102.273 4.94518 101.919 4.9691 101.73 5.11259C101.564 5.22988 101.493 5.39614 101.493 5.6091C101.493 5.91771 101.705 6.57935 102.038 7.43116L106.108 18.1767H106.203C107.222 15.5746 110.298 7.95386 110.865 6.39031C110.984 6.08283 111.079 5.72753 111.079 5.51458C111.079 5.32554 110.984 5.13536 110.772 5.06476C110.487 4.97024 110.132 4.94632 109.825 4.94632C109.613 4.94632 109.424 4.92241 109.424 4.75728C109.424 4.56711 109.635 4.52043 110.084 4.52043C111.267 4.52043 112.262 4.59103 112.571 4.59103C112.972 4.59103 114.086 4.52043 114.795 4.52043C115.103 4.52043 115.294 4.56711 115.294 4.73451C115.294 4.89964 115.149 4.94632 114.914 4.94632C114.678 4.94632 114.182 4.94632 113.752 5.23102C113.445 5.44397 113.092 5.8471 112.451 7.36282C111.529 9.58459 110.889 10.8634 109.613 13.7753L106.463 20.9929C105.847 22.3674 105.704 22.7455 105.375 22.7455C105.068 22.7455 104.924 22.4164 104.475 21.3015L98.5084 6.83898V6.83898ZM123.499 16.2362C123.381 16.2362 123.333 16.2852 123.285 16.4253L122.006 19.8086C121.77 20.4019 121.652 20.9701 121.652 21.2526C121.652 21.6796 121.866 21.9871 122.597 21.9871H122.952C123.237 21.9871 123.308 22.0361 123.308 22.1784C123.308 22.3674 123.165 22.4164 122.903 22.4164C122.147 22.4164 121.128 22.3435 120.397 22.3435C120.135 22.3435 118.836 22.4164 117.606 22.4164C117.297 22.4164 117.155 22.3674 117.155 22.1784C117.155 22.0361 117.248 21.9871 117.44 21.9871L118.174 21.9404C119.262 21.798 119.711 20.9929 120.183 19.8097L126.126 4.94747C126.411 4.26192 126.553 4 126.789 4C127.003 4 127.144 4.21409 127.381 4.75843C127.951 6.06006 131.738 15.7181 133.25 19.3144C134.149 21.445 134.837 21.7764 135.332 21.8948C135.687 21.9654 136.044 21.9882 136.326 21.9882C136.518 21.9882 136.635 22.0121 136.635 22.1795C136.635 22.3686 136.421 22.4175 135.547 22.4175C134.693 22.4175 132.965 22.4175 131.072 22.3686C130.645 22.3447 130.36 22.3447 130.36 22.1795C130.36 22.0372 130.456 21.9882 130.694 21.9654C130.86 21.9188 131.025 21.7047 130.906 21.42L129.013 16.4048C128.966 16.2863 128.897 16.2385 128.777 16.2385H123.499V16.2362V16.2362ZM128.327 15.053C128.446 15.053 128.47 14.9824 128.446 14.9107L126.315 9.06303C126.292 8.96965 126.269 8.85121 126.197 8.85121C126.125 8.85121 126.078 8.96965 126.054 9.06303L123.877 14.8879C123.853 14.9813 123.877 15.053 123.973 15.053H128.327V15.053ZM143.853 11.3827C143.853 7.78645 143.853 7.12368 143.804 6.36525C143.757 5.56127 143.568 5.18206 142.787 5.01693C142.598 4.9691 142.194 4.94518 141.863 4.94518C141.602 4.94518 141.46 4.8985 141.46 4.73337C141.46 4.56597 141.625 4.51928 141.98 4.51928C143.235 4.51928 144.725 4.58989 145.221 4.58989C146.026 4.58989 147.826 4.51928 148.56 4.51928C150.051 4.51928 151.636 4.66163 152.915 5.53736C153.578 5.98604 154.525 7.19429 154.525 8.77947C154.525 10.5298 153.791 12.14 151.4 14.0816C153.505 16.7305 155.139 18.8395 156.536 20.3051C157.862 21.6773 158.832 21.8447 159.187 21.9153C159.448 21.962 159.661 21.9848 159.85 21.9848C160.039 21.9848 160.135 22.0554 160.135 22.1761C160.135 22.3652 159.969 22.4141 159.684 22.4141H157.435C156.112 22.4141 155.517 22.2946 154.903 21.9632C153.886 21.4177 152.986 20.3062 151.66 18.4819C150.713 17.1803 149.625 15.5723 149.315 15.2193C149.197 15.0769 149.057 15.053 148.89 15.053L146.83 15.0063C146.711 15.0063 146.639 15.053 146.639 15.1954V15.5268C146.639 17.7292 146.639 19.5991 146.759 20.5909C146.829 21.2788 146.973 21.7969 147.682 21.8926C148.036 21.9393 148.559 21.986 148.842 21.986C149.031 21.986 149.128 22.0566 149.128 22.1773C149.128 22.3424 148.96 22.4153 148.652 22.4153C147.28 22.4153 145.53 22.3424 145.176 22.3424C144.725 22.3424 143.234 22.4153 142.287 22.4153C141.979 22.4153 141.813 22.3424 141.813 22.1773C141.813 22.0577 141.909 21.986 142.193 21.986C142.547 21.986 142.83 21.9393 143.045 21.8926C143.517 21.7969 143.635 21.2788 143.733 20.5909C143.851 19.5991 143.851 17.728 143.851 15.5484V11.3827H143.853V11.3827ZM146.641 13.2538C146.641 13.5145 146.693 13.6091 146.857 13.6808C147.355 13.8459 148.065 13.9165 148.654 13.9165C149.601 13.9165 149.909 13.8231 150.336 13.5134C151.045 12.993 151.733 11.9032 151.733 9.96381C151.733 6.60326 149.507 5.63188 148.112 5.63188C147.518 5.63188 147.092 5.65693 146.857 5.72753C146.692 5.77536 146.641 5.86988 146.641 6.05892V13.2538V13.2538ZM168.565 5.84596L165.04 5.93934C163.667 5.98603 163.098 6.10561 162.744 6.62604C162.506 6.98247 162.388 7.26603 162.341 7.45507C162.292 7.6441 162.222 7.73976 162.08 7.73976C161.914 7.73976 161.866 7.62019 161.866 7.36169C161.866 6.98361 162.316 4.82789 162.362 4.63885C162.433 4.33024 162.505 4.18789 162.647 4.18789C162.836 4.18789 163.074 4.42476 163.666 4.47259C164.453 4.55021 165.242 4.58974 166.033 4.59103H175.405C176.917 4.59103 177.486 4.35416 177.678 4.35416C177.843 4.35416 177.865 4.49536 177.865 4.8518C177.865 5.34945 177.794 6.98361 177.794 7.59741C177.771 7.83314 177.725 7.97549 177.582 7.97549C177.393 7.97549 177.346 7.85933 177.321 7.50176L177.297 7.24098C177.251 6.62604 176.61 5.96326 174.504 5.91657L171.522 5.84596V15.5484C171.522 17.728 171.522 19.5991 171.64 20.6126C171.711 21.2776 171.855 21.7958 172.565 21.8914C172.896 21.9381 173.416 21.9848 173.771 21.9848C174.031 21.9848 174.151 22.0554 174.151 22.1761C174.151 22.3413 173.96 22.4141 173.7 22.4141C172.139 22.4141 170.648 22.3412 169.988 22.3412C169.441 22.3412 167.948 22.4141 167.003 22.4141C166.694 22.4141 166.531 22.3413 166.531 22.1761C166.531 22.0566 166.625 21.9848 166.909 21.9848C167.264 21.9848 167.546 21.9381 167.759 21.8914C168.235 21.7958 168.375 21.2776 168.447 20.5898C168.565 19.5979 168.565 17.7269 168.565 15.5473V5.84596V5.84596ZM186.955 11.3827C186.955 7.78645 186.955 7.12368 186.907 6.36525C186.86 5.56127 186.624 5.15927 186.101 5.04084C185.823 4.97289 185.536 4.94074 185.25 4.94518C185.016 4.94518 184.872 4.89849 184.872 4.70945C184.872 4.56711 185.063 4.51928 185.441 4.51928C186.339 4.51928 187.83 4.58989 188.519 4.58989C189.109 4.58989 190.505 4.51928 191.404 4.51928C191.712 4.51928 191.902 4.56597 191.902 4.70945C191.902 4.89849 191.76 4.94518 191.524 4.94518C191.286 4.94518 191.097 4.9691 190.813 5.01693C190.174 5.13423 189.985 5.53849 189.938 6.36525C189.889 7.12368 189.889 7.78645 189.889 11.3827V15.5484C189.889 17.8465 189.889 19.7141 189.985 20.731C190.055 21.371 190.22 21.7969 190.932 21.8926C191.263 21.9393 191.784 21.986 192.138 21.986C192.4 21.986 192.516 22.0566 192.516 22.1773C192.516 22.3424 192.327 22.4153 192.066 22.4153C190.505 22.4153 189.012 22.3424 188.374 22.3424C187.829 22.3424 186.339 22.4153 185.392 22.4153C185.083 22.4153 184.92 22.3424 184.92 22.1773C184.92 22.0577 185.016 21.986 185.299 21.986C185.653 21.986 185.937 21.9393 186.15 21.8926C186.624 21.7969 186.764 21.3938 186.836 20.7094C186.955 19.7152 186.955 17.8465 186.955 15.5495V11.3827V11.3827ZM201.081 22.1283C200.703 21.9632 200.631 21.8459 200.631 21.3232C200.631 20.0215 200.727 18.6003 200.75 18.2245C200.773 17.8692 200.845 17.6062 201.034 17.6062C201.248 17.6062 201.27 17.8214 201.27 18.0105C201.27 18.3179 201.366 18.8156 201.484 19.2187C202.005 20.969 203.402 21.6101 204.87 21.6101C206.998 21.6101 208.041 20.1639 208.041 18.9101C208.041 17.7508 207.684 16.6394 205.721 15.1248L204.632 14.273C202.03 12.2357 201.129 10.5787 201.129 8.66331C201.129 6.05891 203.308 4.18904 206.598 4.18904C208.136 4.18904 209.13 4.4259 209.744 4.59216C209.958 4.63999 210.075 4.7106 210.075 4.87572C210.075 5.18319 209.984 5.86988 209.984 7.71585C209.984 8.23855 209.911 8.42531 209.722 8.42531C209.556 8.42531 209.484 8.28524 209.484 7.99826C209.484 7.78645 209.366 7.05308 208.87 6.437C208.515 5.98718 207.827 5.27885 206.292 5.27885C204.539 5.27885 203.474 6.29693 203.474 7.71585C203.474 8.80567 204.019 9.63356 205.982 11.1231L206.645 11.6219C209.483 13.8243 210.526 15.4095 210.526 17.6586C210.526 19.0308 210.006 20.6615 208.302 21.7753C207.117 22.5314 205.793 22.7455 204.538 22.7455C203.165 22.7444 202.099 22.577 201.081 22.1283V22.1283Z" fill="white"/>
<path fill-rule="evenodd" clip-rule="evenodd" d="M11.207 26.8971C1.01619 26.1186 -2.08205 20.2588 1.33167 13.6602C3.17065 10.1077 5.97904 6.28575 2.63248 2.7545C2.54146 2.63785 2.61657 2.56362 2.75708 2.62725C10.3807 5.66628 6.41382 11.8027 5.11302 14.3424C2.54764 19.353 4.18425 25.4373 11.2079 26.7451C11.3616 26.7796 11.3502 26.9104 11.207 26.8971Z" fill="white"/>
<path fill-rule="evenodd" clip-rule="evenodd" d="M12.5668 21.3077L14.2926 0.00618923L10.2515 0L12.4245 21.3077C12.4351 21.4482 12.557 21.4429 12.5668 21.3077V21.3077Z" fill="white"/>
<path fill-rule="evenodd" clip-rule="evenodd" d="M17.1803 10.585C19.6962 12.5653 23.801 23.5709 13.7816 26.7434C13.619 26.7849 13.6331 26.9095 13.7843 26.8918C29.7217 24.9018 24.2446 13.4658 17.3137 10.4507C17.1299 10.3605 17.0425 10.4772 17.1803 10.585Z" fill="white"/>
</svg>
