<svg width="160" height="25" viewBox="0 0 160 25" fill="none" xmlns="http://www.w3.org/2000/svg">
<path fill-rule="evenodd" clip-rule="evenodd" d="M0 23.6336V19.2208H12.8416L12.9212 13.8622H2.44285C2.44285 13.8622 0.236443 12.9972 0 11.3445L0.0784159 2.67692C0.0784159 2.67692 0.706951 0.155653 2.75771 0.155653L20.5634 0.079608L20.9567 4.88332L8.19352 5.04253V9.92585H18.0409C18.0409 9.92585 20.8783 10.3179 20.8783 12.2879V20.8759C20.8783 20.8759 20.1689 23.6336 17.9637 23.6336H0ZM41.6187 0.0166341H26.4127C23.8938 0.0166341 23.4173 2.77434 23.4173 2.77434L23.5754 20.6608C23.5754 22.7864 26.0978 23.5742 26.0978 23.5742H41.5415C43.7479 23.5742 44.3764 21.0565 44.3764 21.0565V2.93356C44.3764 0.883989 41.6187 0.0166341 41.6187 0.0166341ZM31.4172 19.2018V4.39023H36.2993L36.3777 19.2006H31.4172V19.2018ZM68.1502 22.7662C67.4397 22.6866 67.2032 22.0581 67.2032 22.0581L67.1248 14.4979C67.0464 12.8392 64.9968 12.4483 64.9968 12.4483V11.5809C66.6543 11.5013 67.2032 8.98008 67.2032 8.98008L67.1248 2.83494C67.0464 0.628536 64.7628 0.0807955 64.7628 0.0807955H46.7194L46.7979 23.3223H54.4401V14.025H59.4838L59.5646 23.2439L68.2274 23.3223L68.1502 22.7662V22.7662ZM59.6406 8.90285C59.6406 8.90285 59.6406 9.6906 58.9301 9.6906L54.3617 9.61099L54.282 4.56846H58.696C58.696 4.56846 59.6406 4.88451 59.6406 5.75186V8.90285V8.90285ZM77.6816 23.2415H69.8813V0H77.6816V23.2415V23.2415ZM98.0073 0.079608L82.9605 0.235261C80.7541 0.316056 80.4405 2.52127 80.4405 2.52127V23.2415L88.0827 23.3199L87.9246 14.3375H92.8888V23.3199L100.925 23.2415V3.46823C101.004 0.787754 98.0073 0.079608 98.0073 0.079608V0.079608ZM93.3616 10.7124H88.0031L88.0815 5.66988C88.0815 5.66988 87.845 4.17161 88.868 4.17161L92.3351 4.09558C92.3351 4.09558 93.3605 4.25241 93.3605 5.19937V10.7124H93.3616V10.7124ZM144.574 0.079608L129.527 0.235261C127.318 0.316056 127.002 2.52127 127.002 2.52127V23.2415L134.646 23.3199L134.486 14.3375H139.455V23.3199L147.489 23.2415V3.46823C147.564 0.787754 144.574 0.079608 144.574 0.079608ZM139.923 10.7124H134.567L134.645 5.66988C134.645 5.66988 134.406 4.17161 135.432 4.17161L138.899 4.09558C138.899 4.09558 139.922 4.25241 139.922 5.19937V10.7124H139.923V10.7124ZM103.602 23.3199L103.524 0.079608H112.033L119.123 11.2649L119.754 11.1865L119.596 0H123.932L124.089 23.3199L115.737 23.2415L108.566 12.1287L107.698 12.0526L107.622 23.3199H103.602V23.3199ZM149.836 24.4178V19.9788H151.177L151.983 23.0074L152.781 19.9788H154.125V24.4178H153.295V20.9234L152.411 24.4178H151.549L150.67 20.9234V24.4178H149.836V24.4178ZM155.019 24.4178V19.9788H156.905C157.381 19.9788 157.724 20.018 157.94 20.0988C158.154 20.1772 158.328 20.321 158.458 20.523C158.585 20.7274 158.651 20.9602 158.651 21.2228C158.651 21.5555 158.553 21.8323 158.356 22.0486C158.161 22.2648 157.869 22.4027 157.479 22.4585C157.674 22.5726 157.834 22.6961 157.959 22.8316C158.084 22.9659 158.254 23.2059 158.468 23.5516L159.011 24.4178H157.939L157.292 23.4518C157.062 23.1072 156.904 22.8886 156.819 22.7995C156.745 22.717 156.652 22.6534 156.549 22.6142C156.402 22.5755 156.25 22.5591 156.099 22.5654H155.918V24.419H155.019V24.4178V24.4178ZM155.916 21.8549H156.577C157.006 21.8549 157.276 21.8371 157.385 21.8015C157.492 21.7658 157.575 21.7028 157.636 21.6137C157.697 21.5246 157.726 21.4141 157.726 21.281C157.733 21.1493 157.69 21.0198 157.605 20.9187C157.518 20.822 157.398 20.7604 157.269 20.7452C157.051 20.7308 156.833 20.7257 156.614 20.7297H155.916V21.8549V21.8549Z" fill="white"/>
</svg>
