<svg width="150" height="33" viewBox="0 0 150 33" fill="none" xmlns="http://www.w3.org/2000/svg">
<path fill-rule="evenodd" clip-rule="evenodd" d="M16.254 5.09806V28.2652H9.07832L9.20107 26.3455C8.71209 27.1253 8.1064 27.7129 7.385 28.1083C6.67467 28.4936 5.85467 28.6838 4.923 28.6838C3.86354 28.6838 2.98519 28.4966 2.28693 28.1254C1.58868 27.7541 1.07052 27.2591 0.733469 26.6413C0.413751 26.0436 0.206729 25.3922 0.122746 24.7196C0.0412492 24.0455 0 22.7134 0 20.7223V5.09706H7.05297V20.8611C7.05297 22.6651 7.1053 23.7356 7.20993 24.0737C7.32564 24.4117 7.62848 24.5808 8.11746 24.5808C8.64166 24.5808 8.94953 24.4057 9.0421 24.0566C9.14673 23.7064 9.19905 22.5846 9.19905 20.686V5.09806H16.254ZM33.1882 12.5002H26.9381V11.2425C26.9381 10.172 26.8738 9.49787 26.746 9.21716C26.6293 8.92638 26.3274 8.7815 25.8384 8.7805C25.442 8.7805 25.1452 8.91432 24.948 9.18195C24.7498 9.4375 24.6512 9.82788 24.6512 10.3521C24.6512 11.0624 24.6975 11.5856 24.7911 11.9236C24.8957 12.2496 25.1925 12.6108 25.6815 13.0063C26.1825 13.4027 27.1997 13.9782 28.7371 14.7348C30.7856 15.7359 32.1298 16.6786 32.7697 17.563C33.4096 18.4474 33.7295 19.7342 33.7305 21.4225C33.7305 23.307 33.486 24.7337 32.9971 25.6986C32.5091 26.6534 31.6881 27.3929 30.5361 27.9151C29.3951 28.4282 28.0167 28.6838 26.3989 28.6838C24.6059 28.6838 23.0696 28.4051 21.7898 27.8467C20.521 27.2863 19.6487 26.5317 19.1708 25.5768C18.6929 24.622 18.4555 23.1792 18.4555 21.2475V20.1296H24.7055V21.5956C24.7055 22.8412 24.78 23.6511 24.9319 24.0224C25.0949 24.3956 25.4088 24.5828 25.8747 24.5828C26.3747 24.5828 26.7238 24.459 26.922 24.2155C27.1192 23.96 27.2178 23.4298 27.2189 22.6259C27.2189 21.5211 27.0911 20.8299 26.8345 20.5492C26.5659 20.2705 25.1995 19.4445 22.7315 18.0711C20.6589 16.908 19.3972 15.8546 18.9424 14.9098C18.4887 13.956 18.2613 12.8272 18.2613 11.5232C18.2613 9.67293 18.5058 8.31064 18.9947 7.43731C19.4837 6.55293 20.3098 5.87178 21.4738 5.39487C22.648 4.91797 24.0103 4.67951 25.5587 4.67951C27.0951 4.67951 28.399 4.87772 29.4696 5.27313C30.5522 5.65747 31.3772 6.16959 31.9487 6.80949C32.5302 7.45039 32.8793 8.04401 32.9961 8.59135C33.1238 9.13768 33.1872 9.99389 33.1882 11.157V12.5002V12.5002ZM51.6417 5.09806V22.9398C51.6417 25.3495 51.5833 26.909 51.4666 27.6183C51.362 28.3175 50.9716 29.057 50.2975 29.8368C49.6224 30.6266 48.6796 31.2263 47.4682 31.6348C46.2699 32.0533 44.7567 32.2636 42.9296 32.2636C40.6829 32.2636 38.8789 31.8782 37.5176 31.1106C36.1553 30.3539 35.452 28.8588 35.4047 26.6242H42.2484C42.2484 27.6485 42.6207 28.1606 43.3652 28.1606C43.9005 28.1606 44.2547 28.0036 44.4307 27.6887C44.6048 27.3748 44.6923 26.7158 44.6923 25.7157V23.969C44.1288 24.49 43.4793 24.9093 42.7726 25.2086C42.1094 25.4881 41.3966 25.6311 40.6769 25.6292C39.4081 25.6292 38.3607 25.3716 37.5337 24.8605C36.7187 24.3474 36.1603 23.6773 35.8575 22.8522C35.5546 22.0131 35.4037 20.8259 35.4037 19.2915V10.8753C35.4037 8.67586 35.7991 7.09322 36.591 6.12733C37.3818 5.16245 38.5861 4.67851 40.205 4.67851C41.0894 4.67851 41.8923 4.85961 42.6147 5.2198C43.3481 5.581 43.9991 6.12231 44.5696 6.8437L45.0757 5.09806H51.6417V5.09806ZM44.5706 11.2435C44.5706 10.1851 44.5062 9.50995 44.3784 9.21817C44.2617 8.9274 43.9941 8.78251 43.5755 8.7815C43.168 8.7815 42.8773 8.95054 42.7022 9.2886C42.5392 9.61458 42.4577 10.2655 42.4577 11.2435V19.0289C42.4577 20.0643 42.5211 20.7404 42.6499 21.0553C42.7777 21.3581 43.0453 21.5091 43.4528 21.5091C43.9176 21.5091 44.2205 21.3219 44.3613 20.9507C44.5002 20.5774 44.5706 19.7342 44.5706 18.4172V11.2435V11.2435ZM60.4574 14.0717H53.8401V12.5183C53.8401 10.7264 54.0433 9.34695 54.4518 8.38107C54.8703 7.40311 55.7024 6.54186 56.948 5.79732C58.1926 5.05279 59.8104 4.68052 61.8016 4.68052C64.1881 4.68052 65.9861 5.1051 67.1965 5.95528C68.4048 6.79339 69.1343 7.8297 69.3777 9.06322C69.6232 10.2847 69.745 12.8111 69.745 16.6394V28.2672H62.8832V26.2077C62.4525 27.0327 61.8941 27.6555 61.208 28.0741C60.5328 28.4805 59.7239 28.6848 58.7812 28.6848C57.5687 28.6908 56.3825 28.3322 55.3764 27.6555C54.3522 26.9583 53.8401 25.439 53.8401 23.0987V21.1962C53.8401 19.4626 54.1137 18.2804 54.6611 17.6516C55.2074 17.0247 56.5637 16.2893 58.7289 15.4522C61.045 14.5446 62.2855 13.9339 62.4485 13.62C62.6095 13.3061 62.692 12.6662 62.692 11.6993C62.692 10.4889 62.5974 9.70312 62.4133 9.34192C62.2382 8.96965 61.9414 8.78351 61.5229 8.78351C61.045 8.78351 60.7482 8.94047 60.6325 9.25539C60.5157 9.55824 60.4584 10.3551 60.4584 11.647V14.0717H60.4574V14.0717ZM62.693 17.2481C61.5631 18.0751 60.9061 18.7674 60.72 19.3247C60.5449 19.8852 60.4584 20.687 60.4584 21.7344C60.4584 22.9347 60.5339 23.7074 60.6858 24.0576C60.8488 24.4077 61.1627 24.5818 61.6285 24.5818C62.0702 24.5818 62.356 24.4459 62.4837 24.1793C62.6236 23.9006 62.694 23.1792 62.694 22.0141V17.2481H62.693V17.2481ZM79.3465 5.09806L79.2247 7.22804C79.7359 6.37786 80.3587 5.744 81.0931 5.32444C81.8377 4.89382 82.6929 4.67851 83.6598 4.67851C84.8681 4.67851 85.8592 4.96425 86.6268 5.53472C87.3945 6.1052 87.8905 6.8266 88.1109 7.69891C88.3332 8.56016 88.4429 10.004 88.4429 12.0293V28.2652H81.3899V12.2205C81.3899 10.6267 81.3366 9.65483 81.233 9.3057C81.1293 8.95657 80.8356 8.7815 80.3607 8.7815C79.8596 8.7815 79.5447 8.98575 79.4169 9.39223C79.2891 9.78864 79.2247 10.8592 79.2247 12.6038V28.2642H72.1718V5.09806H79.3465V5.09806ZM106.895 5.09806V22.9398C106.895 25.3495 106.838 26.909 106.722 27.6183C106.617 28.3175 106.227 29.057 105.551 29.8368C104.877 30.6266 103.934 31.2263 102.723 31.6348C101.525 32.0533 100.011 32.2636 98.1833 32.2636C95.9376 32.2636 94.1336 31.8782 92.7713 31.1106C91.409 30.3539 90.7057 28.8588 90.6584 26.6242H97.5031C97.5031 27.6485 97.8744 28.1606 98.6189 28.1606C99.1552 28.1606 99.5093 28.0036 99.6844 27.6887C99.8595 27.3738 99.946 26.7158 99.946 25.7157V23.969C99.3828 24.4904 98.7332 24.9098 98.0263 25.2086C97.3634 25.4881 96.651 25.6312 95.9315 25.6292C94.6618 25.6292 93.6144 25.3716 92.7894 24.8605C91.9734 24.3474 91.416 23.6773 91.1132 22.8522C90.8103 22.0131 90.6594 20.8259 90.6594 19.2915V10.8753C90.6594 8.67586 91.0568 7.09322 91.8467 6.12733C92.6385 5.16245 93.8428 4.67851 95.4607 4.67851C96.3451 4.67851 97.149 4.85961 97.8704 5.2198C98.6048 5.581 99.2558 6.12231 99.8253 6.8437L100.332 5.09806H106.895V5.09806ZM99.8253 11.2435C99.8253 10.1851 99.7629 9.50995 99.6351 9.21817C99.5174 8.9274 99.2498 8.78251 98.8312 8.7815C98.4247 8.7815 98.134 8.95054 97.9589 9.2886C97.7959 9.61458 97.7134 10.2655 97.7134 11.2435V19.0289C97.7134 20.0643 97.7778 20.7404 97.9056 21.0553C98.0334 21.3581 98.301 21.5091 98.7095 21.5091C99.1753 21.5091 99.4761 21.3219 99.617 20.9507C99.7568 20.5774 99.8253 19.7342 99.8253 18.4172V11.2435V11.2435ZM114.107 22.5031V28.2652H108.782V22.5031H114.107ZM131.599 13.8444H124.949V11.1731C124.949 10.2424 124.873 9.61458 124.721 9.28759C124.57 8.94953 124.29 8.7815 123.882 8.7805C123.475 8.7805 123.202 8.92638 123.063 9.21716C122.923 9.50893 122.853 10.1609 122.853 11.1731V22.1017C122.853 22.9267 122.958 23.5495 123.166 23.968C123.377 24.3765 123.686 24.5808 124.092 24.5808C124.57 24.5808 124.89 24.3645 125.053 23.9338C125.228 23.5032 125.315 22.6882 125.315 21.4889V18.7301H131.599C131.587 20.5814 131.518 21.9729 131.391 22.9036C131.273 23.8232 130.884 24.7699 130.219 25.7489C129.582 26.703 128.695 27.4638 127.655 27.9483C126.593 28.4373 125.285 28.6818 123.727 28.6818C121.736 28.6818 120.158 28.3437 118.995 27.6696C117.83 26.9834 117.004 26.0286 116.517 24.8061C116.037 23.5716 115.802 21.827 115.802 19.5692V12.9871C115.802 11.0201 115.998 9.53711 116.393 8.53501C116.789 7.53491 117.633 6.64449 118.925 5.86474C120.218 5.07291 121.79 4.6775 123.639 4.6775C125.479 4.6775 127.049 5.06788 128.354 5.84763C129.657 6.62738 130.523 7.61037 130.956 8.7976C131.385 9.98584 131.599 11.6681 131.599 13.8444V13.8444ZM140.749 0V6.35472C141.317 5.81866 141.98 5.39258 142.704 5.09806C143.427 4.81577 144.197 4.67339 144.973 4.67851C146.206 4.67851 147.253 4.99242 148.116 5.62125C148.988 6.25008 149.517 6.97751 149.703 7.80354C149.901 8.61952 150 10.1136 150 12.2899V28.2642H142.947V11.9589C142.947 10.6086 142.879 9.74236 142.737 9.35802C142.609 8.97368 142.312 8.7815 141.846 8.7815C141.416 8.7815 141.125 8.97972 140.974 9.37512C140.823 9.77154 140.748 10.5573 140.748 11.7325V28.2652H133.693V0H140.749V0Z" fill="white"/>
</svg>
