<svg width="54" height="52" viewBox="0 0 54 52" fill="none" xmlns="http://www.w3.org/2000/svg">
<path d="M49.3348 24.2008V23.2095H51.2592C51.7423 23.2095 52.1339 22.8178 52.1339 22.3347V19.4773H53.1253C53.6084 19.4773 54 19.0857 54 18.6026V15.8034C54 15.4896 53.8318 15.1996 53.5593 15.0439L27.434 0.115202C27.165 -0.0384007 26.8349 -0.0384007 26.566 0.115202L0.440747 15.0439C0.168181 15.1996 0 15.4895 0 15.8034V18.6026C0 19.0857 0.391646 19.4773 0.87473 19.4773H1.86609V22.3347C1.86609 22.8178 2.25774 23.2095 2.74082 23.2095H4.66523V24.2008C4.66523 24.8804 5.04253 25.473 5.59827 25.7818V41.987H2.74082C2.25774 41.987 1.86609 42.3787 1.86609 42.8617V45.7192H0.87473C0.391646 45.7192 0 46.1108 0 46.5939V50.3261C0 50.8092 0.391646 51.2008 0.87473 51.2008H53.1253C53.6084 51.2008 54 50.8092 54 50.3261V46.5939C54 46.1108 53.6084 45.7192 53.1253 45.7192H52.1339V42.8617C52.1339 42.3787 51.7423 41.987 51.2592 41.987H48.4017V25.7818C48.9575 25.473 49.3348 24.8804 49.3348 24.2008ZM47.5853 24.2008C47.5853 24.233 47.5592 24.2592 47.527 24.2592H43.7948C43.7626 24.2592 43.7365 24.233 43.7365 24.2008V23.2095H47.5853V24.2008ZM39.0713 41.987V25.7818C39.627 25.473 40.0043 24.8804 40.0043 24.2008V23.2095H41.987V24.2008C41.987 24.8804 42.3643 25.473 42.9201 25.7818V41.987H39.0713ZM35.3391 41.987V26.0086H37.3218V41.987H35.3391ZM29.7408 41.987V25.7818C30.2966 25.473 30.6739 24.8804 30.6739 24.2008V23.2095H32.6566V24.2008C32.6566 24.8804 33.0339 25.473 33.5896 25.7818V41.987H29.7408ZM26.0086 41.987V26.0086H27.9914V41.987H26.0086ZM20.4104 41.987V25.7818C20.9661 25.473 21.3434 24.8804 21.3434 24.2008V23.2095H23.3261V24.2008C23.3261 24.8804 23.7034 25.473 24.2592 25.7818V41.987H20.4104ZM16.6782 41.987V26.0086H18.6609V41.987H16.6782ZM11.0799 41.987V25.7818C11.6357 25.473 12.013 24.8804 12.013 24.2008V23.2095H13.9957V24.2008C13.9957 24.8804 14.373 25.473 14.9287 25.7818V41.987H11.0799ZM19.594 23.2095V24.2008C19.594 24.233 19.5678 24.2592 19.5356 24.2592H15.8035C15.7713 24.2592 15.7451 24.233 15.7451 24.2008V23.2095H19.594ZM28.9244 23.2095V24.2008C28.9244 24.233 28.8983 24.2592 28.8661 24.2592H25.1339C25.1017 24.2592 25.0756 24.233 25.0756 24.2008V23.2095H28.9244ZM38.2549 23.2095V24.2008C38.2549 24.233 38.2287 24.2592 38.1965 24.2592H34.4644C34.4322 24.2592 34.406 24.233 34.406 24.2008V23.2095H38.2549ZM1.74946 16.311L27 1.88216L52.2505 16.311V17.7278H1.74946V16.311ZM3.61555 19.4773H50.3844V21.46H3.61555V19.4773ZM10.2635 23.2095V24.2008C10.2635 24.233 10.2374 24.2592 10.2052 24.2592H6.473C6.44081 24.2592 6.41469 24.233 6.41469 24.2008V23.2095H10.2635ZM7.34773 26.0086H9.33045V41.987H7.34773V26.0086ZM52.2505 49.4514H1.74946V47.4687H52.2505V49.4514ZM50.3844 45.7192H3.61555V43.7365H50.3844V45.7192ZM44.6695 41.987V26.0086H46.6523V41.987H44.6695Z" fill="white"/>
</svg>
