<svg width="55" height="53" viewBox="0 0 55 53" fill="none" xmlns="http://www.w3.org/2000/svg">
<path d="M54.4027 43.4109L43.0916 32.0999C42.7065 31.7148 42.1946 31.5029 41.65 31.5029C41.2733 31.5029 40.9134 31.6064 40.5991 31.7965L34.2446 25.442C33.9189 25.1164 33.391 25.1164 33.0653 25.442C32.7397 25.7676 32.7397 26.2957 33.0653 26.6213L39.3761 32.9321L37.0512 35.2571L25.4758 23.6817L27.8007 21.3568L29.3496 22.9055C29.6751 23.2312 30.2032 23.2311 30.5289 22.9055C30.8545 22.5798 30.8545 22.0518 30.5288 21.7262L28.98 20.1775L33.0106 16.1469L33.3295 16.4658C33.7256 16.862 34.2524 17.0802 34.8128 17.0802C35.3731 17.0802 35.8998 16.862 36.2961 16.4658L37.7817 14.9802C38.1778 14.584 38.3961 14.0572 38.3961 13.497C38.3961 12.9367 38.1778 12.4099 37.7817 12.0139L26.3824 0.614453C25.9864 0.218281 25.4596 0 24.8992 0C24.3388 0 23.8122 0.218174 23.4161 0.614346L21.9303 2.09999C21.5342 2.49616 21.3159 3.02285 21.3159 3.58327C21.3159 4.14348 21.5342 4.67028 21.9302 5.06645L22.2492 5.38538L9.50442 18.1301L9.18548 17.8112C8.36768 16.9935 7.03693 16.9935 6.21913 17.8113L4.73349 19.297C4.33742 19.6931 4.11914 20.2199 4.11914 20.7801C4.11914 21.3404 4.33742 21.8672 4.73349 22.2633L16.1326 33.6625C16.5287 34.0587 17.0555 34.2768 17.6158 34.2768C18.1762 34.2768 18.7028 34.0587 19.099 33.6625L20.5848 32.1768C20.5849 32.1768 20.5849 32.1768 20.5849 32.1768C21.4025 31.359 21.4026 30.0284 20.5849 29.2105L20.2659 28.8916L24.2964 24.8611L35.9155 36.4802C35.7255 36.7945 35.6219 37.1543 35.6219 37.5311C35.6219 38.0756 35.834 38.5876 36.219 38.9727L47.5299 50.2837C47.9151 50.6688 48.4269 50.8807 48.9717 50.8807C49.5162 50.8807 50.028 50.6687 50.4132 50.2837L54.4027 46.2942C54.7877 45.9092 54.9997 45.3973 54.9997 44.8526C54.9997 44.308 54.7877 43.7959 54.4027 43.4109ZM23.1096 3.27938L24.5955 1.79362C24.6766 1.71252 24.7845 1.66783 24.8992 1.66783C25.0139 1.66783 25.1218 1.71252 25.2029 1.79373L36.6022 13.1929C36.6833 13.274 36.7281 13.382 36.7281 13.4967C36.7281 13.6114 36.6834 13.7194 36.6021 13.8006L35.1166 15.2862C34.9542 15.4486 34.6711 15.4487 34.5088 15.2864L23.1097 3.88717C23.0285 3.80596 22.9837 3.69811 22.9837 3.58327C22.9837 3.46844 23.0285 3.36069 23.1096 3.27938ZM19.4055 30.9975L17.9196 32.4831C17.7574 32.6454 17.4743 32.6454 17.3119 32.4831L5.91276 21.0839C5.83166 21.0028 5.78687 20.8949 5.78687 20.7801C5.78687 20.6654 5.83155 20.5574 5.91287 20.4762L7.39841 18.9906C7.4822 18.9068 7.5922 18.8649 7.70231 18.8649C7.81241 18.8649 7.92241 18.9068 8.00609 18.9906L19.4053 30.3897C19.5729 30.5572 19.5729 30.8298 19.4055 30.9975ZM23.7067 23.092C23.7066 23.0921 23.7066 23.0921 23.7064 23.0922L19.0864 27.7122L10.6837 19.3095L23.4285 6.56488L31.8312 14.9675L27.2117 19.5869C27.2114 19.5872 27.2111 19.5874 27.2108 19.5877L23.7067 23.092ZM53.2232 45.1147L49.2338 49.1042C49.1393 49.1987 49.029 49.2128 48.9717 49.2128C48.9142 49.2128 48.8039 49.1987 48.7094 49.1042L37.3984 37.7931C37.3039 37.6985 37.2897 37.5882 37.2897 37.5309C37.2897 37.4735 37.3038 37.3632 37.3984 37.2686L37.641 37.0261L41.3878 33.2792C41.4822 33.1847 41.5925 33.1706 41.65 33.1706C41.7074 33.1706 41.8177 33.1847 41.9121 33.2792L53.2232 44.5902C53.3177 44.6847 53.3319 44.795 53.3319 44.8524C53.3319 44.9098 53.3177 45.0202 53.2232 45.1147Z" fill="white"/>
<path d="M31.6712 45.5842H30.3935V41.1898C30.3935 40.2095 29.5961 39.412 28.6158 39.412H14.2409C13.7803 39.412 13.407 39.7854 13.407 40.2459C13.407 40.7064 13.7803 41.0798 14.2409 41.0798H28.6158C28.6764 41.0798 28.7257 41.1291 28.7257 41.1897V45.5841H6.56788V41.1897C6.56788 41.129 6.61719 41.0798 6.67777 41.0798H9.00131C9.46194 41.0798 9.83523 40.7064 9.83523 40.2459C9.83523 39.7854 9.46194 39.412 9.00131 39.412H6.67777C5.69744 39.412 4.90005 40.2095 4.90005 41.1898V45.5842H3.62237C1.62497 45.5842 0 47.2092 0 49.2066V51.581C0 52.3503 0.62584 52.9762 1.3952 52.9762H33.8984C34.6677 52.9762 35.2936 52.3503 35.2936 51.581V49.2066C35.2936 47.2092 33.6686 45.5842 31.6712 45.5842ZM33.6258 51.3083H1.66783V49.2066C1.66783 48.129 2.54461 47.2521 3.62237 47.2521H31.6713C32.749 47.2521 33.6258 48.1288 33.6258 49.2066V51.3083Z" fill="white"/>
</svg>
