<svg width="55" height="62" viewBox="0 0 55 62" fill="none" xmlns="http://www.w3.org/2000/svg">
<path d="M5.20707 46.1522H1.19565C0.535294 46.1522 0 46.6875 0 47.3478V55.2391C0 55.8995 0.535294 56.4348 1.19565 56.4348H3.58696V60.0217C3.58696 60.6821 4.12225 61.2174 4.78261 61.2174H53.8043C54.4646 61.2174 55 60.6821 55 60.0217V1.19565C55 0.535293 54.4646 0 53.8043 0H40.0543C39.3941 0 38.8587 0.535293 38.8587 1.19565C38.8587 1.85601 39.3941 2.3913 40.0543 2.3913H52.6087V58.8261H25.1087V56.4348H27.5C28.1602 56.4348 28.6957 55.8995 28.6957 55.2391V47.3478C28.6957 46.6875 28.1602 46.1522 27.5 46.1522H23.0163C21.1225 46.1522 20.1137 44.2885 19.768 43.4873C18.6774 40.9604 18.9707 37.8716 20.4496 36.3027C21.912 34.7531 22.7174 32.7309 22.7174 30.6087C22.7174 26.3998 19.594 22.908 15.5435 22.3259V2.3913H29.2935C29.9537 2.3913 30.4891 1.85601 30.4891 1.19565C30.4891 0.535293 29.9537 0 29.2935 0H14.3478C13.6875 0 13.1522 0.535293 13.1522 1.19565V22.3255C9.57646 22.824 6.86555 25.5589 6.17459 28.7786C5.5892 31.5091 6.3262 34.2326 8.19703 36.251C9.9324 38.1228 9.81248 41.0145 8.92387 43.0499C8.26913 44.5496 6.94889 46.1522 5.20707 46.1522ZM22.7174 58.8261H5.97826V56.4348H22.7174V58.8261ZM26.3043 54.0435H2.3913V48.5435H26.3043V54.0435ZM8.51268 29.2801C9.04009 26.8224 11.3293 24.6304 14.3478 24.6304C17.6442 24.6304 20.3261 27.3123 20.3261 30.6087C20.3261 32.1182 19.7523 33.5575 18.7099 34.662C16.2982 37.2202 16.312 41.5147 17.5723 44.4349C17.8492 45.0766 18.1782 45.6507 18.5513 46.1522H9.81427C10.3209 45.5364 10.7619 44.8161 11.1154 44.0066C12.5803 40.651 12.1231 36.9685 9.9507 34.6252C8.61707 33.1863 8.09289 31.238 8.51268 29.2801Z" fill="white"/>
<path d="M39.4565 37.3045C34.8415 37.3045 31.0869 41.0591 31.0869 45.6741C31.0869 50.2891 34.8415 54.0437 39.4565 54.0437C44.0715 54.0437 47.826 50.2891 47.826 45.6741C47.826 41.0591 44.0715 37.3045 39.4565 37.3045ZM39.4565 51.6524C36.1601 51.6524 33.4782 48.9705 33.4782 45.6741C33.4782 42.3777 36.1601 39.6958 39.4565 39.6958C42.7529 39.6958 45.4347 42.3777 45.4347 45.6741C45.4347 48.9705 42.7529 51.6524 39.4565 51.6524Z" fill="white"/>
<path d="M32.2827 7.89154H21.5218C20.8615 7.89154 20.3262 8.42683 20.3262 9.08719C20.3262 9.74755 20.8615 10.2828 21.5218 10.2828H32.2827C32.9429 10.2828 33.4783 9.74755 33.4783 9.08719C33.4783 8.42683 32.9429 7.89154 32.2827 7.89154Z" fill="white"/>
<path d="M20.3262 16.2608C20.3262 16.9212 20.8615 17.4565 21.5218 17.4565H46.6305C47.2908 17.4565 47.8262 16.9212 47.8262 16.2608C47.8262 15.6005 47.2908 15.0652 46.6305 15.0652H21.5218C20.8615 15.0652 20.3262 15.6005 20.3262 16.2608Z" fill="white"/>
<path d="M46.6304 22.2393H28.6957C28.0354 22.2393 27.5 22.7746 27.5 23.435C27.5 24.0953 28.0354 24.6306 28.6957 24.6306H46.6304C47.2907 24.6306 47.8261 24.0953 47.8261 23.435C47.8261 22.7746 47.2907 22.2393 46.6304 22.2393Z" fill="white"/>
<path d="M46.6304 29.4128H28.6957C28.0354 29.4128 27.5 29.9481 27.5 30.6085C27.5 31.2689 28.0354 31.8041 28.6957 31.8041H46.6304C47.2907 31.8041 47.8261 31.2689 47.8261 30.6085C47.8261 29.9481 47.2907 29.4128 46.6304 29.4128Z" fill="white"/>
<path d="M34.6739 2.3913C35.3343 2.3913 35.8696 1.85599 35.8696 1.19565C35.8696 0.535312 35.3343 0 34.6739 0C34.0136 0 33.4783 0.535312 33.4783 1.19565C33.4783 1.85599 34.0136 2.3913 34.6739 2.3913Z" fill="white"/>
</svg>
