<svg width="55" height="67" viewBox="0 0 55 67" fill="none" xmlns="http://www.w3.org/2000/svg">
<path d="M13.5364 50.6797C13.1826 50.6797 12.8385 50.5 12.6441 50.1757L8.23445 42.8321C7.93902 42.3392 8.0979 41.7006 8.59079 41.4057C9.08469 41.1093 9.72174 41.2697 10.0172 41.7621L14.4273 49.1056C14.7222 49.5985 14.5633 50.2371 14.0704 50.532C13.9029 50.632 13.7182 50.6797 13.5364 50.6797Z" fill="white"/>
<path d="M27.4977 35.2479C27.3272 35.2479 27.1536 35.2068 26.9947 35.1169L20.381 31.4424C19.8785 31.1627 19.6978 30.5307 19.9765 30.0297C20.2551 29.5282 20.8891 29.3454 21.3891 29.6251L28.0028 33.3002C28.5053 33.5794 28.686 34.2119 28.4074 34.7129C28.217 35.055 27.8637 35.2479 27.4977 35.2479Z" fill="white"/>
<path d="M7.65425 44.8052C7.38827 44.8052 7.12177 44.7031 6.91923 44.5006C6.51264 44.094 6.51264 43.4372 6.91923 43.0306L21.6211 28.3256C22.0277 27.919 22.6846 27.919 23.0912 28.3256C23.4973 28.7322 23.4973 29.3891 23.0912 29.7957L8.38927 44.5006C8.18674 44.7042 7.92024 44.8052 7.65425 44.8052Z" fill="white"/>
<path d="M22.3566 30.1012C22.0901 30.1012 21.8241 29.9992 21.6216 29.7967L19.4104 27.5855C19.0038 27.1789 19.0038 26.5221 19.4104 26.1155C19.8165 25.7089 20.4739 25.7089 20.8805 26.1155L23.0916 28.3266C23.4977 28.7332 23.4977 29.3901 23.0916 29.7967C22.8875 29.9992 22.6226 30.1012 22.3566 30.1012Z" fill="white"/>
<path d="M7.65425 44.8052C7.38826 44.8052 7.12177 44.7031 6.91923 44.5006L4.70808 42.2869C4.30149 41.8808 4.30149 41.2225 4.70808 40.8174C5.11468 40.4108 5.77153 40.4108 6.17812 40.8174L8.38927 43.0306C8.79586 43.4372 8.79586 44.095 8.38927 44.5006C8.18673 44.7042 7.92024 44.8052 7.65425 44.8052Z" fill="white"/>
<path d="M42.1938 49.951C42.0233 49.951 41.8497 49.9094 41.6893 49.8201C41.1883 49.5404 41.0076 48.9084 41.2862 48.4064L44.9598 41.7978C45.2385 41.2978 45.8694 41.1146 46.374 41.3943C46.875 41.674 47.0557 42.3059 46.7771 42.8085L43.1035 49.417C42.9131 49.7576 42.5588 49.951 42.1938 49.951Z" fill="white"/>
<path d="M28.2317 34.5195C27.85 34.5195 27.483 34.3093 27.3003 33.9444C27.0434 33.4312 27.2515 32.8063 27.7652 32.5495L33.6418 29.6094C34.1545 29.3535 34.7799 29.5606 35.0367 30.0743C35.2936 30.5875 35.086 31.2124 34.5723 31.4693L28.6952 34.4093C28.5469 34.484 28.3876 34.5195 28.2317 34.5195Z" fill="white"/>
<path d="M47.3381 44.8112C47.0722 44.8112 46.8062 44.7092 46.6031 44.5067L31.9028 29.8048C31.4962 29.3982 31.4962 28.7413 31.9028 28.3347C32.3088 27.9287 32.9662 27.9287 33.3723 28.3347L48.0732 43.0366C48.4798 43.4432 48.4798 44.1001 48.0732 44.5067C47.8706 44.7102 47.6046 44.8112 47.3381 44.8112Z" fill="white"/>
<path d="M32.6373 30.1094C32.3713 30.1094 32.1053 30.0078 31.9028 29.8048C31.4962 29.3982 31.4962 28.7414 31.9028 28.3348L34.1129 26.1236C34.519 25.717 35.1763 25.717 35.5824 26.1236C35.989 26.5302 35.989 27.1871 35.5824 27.5936L33.3723 29.8048C33.1697 30.0078 32.9038 30.1094 32.6373 30.1094Z" fill="white"/>
<path d="M47.3384 44.8113C47.0724 44.8113 46.8064 44.7093 46.6034 44.5067C46.1973 44.1001 46.1973 43.4433 46.6034 43.0367L48.8156 40.8235C49.2222 40.4169 49.8795 40.4169 50.2856 40.8235C50.6922 41.2301 50.6922 41.8869 50.2856 42.2935L48.0734 44.5067C47.8709 44.7103 47.6049 44.8113 47.3384 44.8113Z" fill="white"/>
<path d="M21.6201 41.126C21.3536 41.126 21.0876 41.024 20.8851 40.8214C20.4785 40.4148 20.4785 39.757 20.8851 39.3514L27.5018 32.7408C27.9084 32.3342 28.5652 32.3342 28.9718 32.7408C29.3784 33.1469 29.3784 33.8053 28.9718 34.2108L22.3551 40.8214C22.1511 41.025 21.8861 41.126 21.6201 41.126Z" fill="white"/>
<path d="M24.9306 45.1731C24.6641 45.1731 24.3981 45.0711 24.1956 44.8685C23.789 44.4619 23.789 43.8051 24.1956 43.3985L28.9722 38.6204C29.3788 38.2138 30.0356 38.2138 30.4422 38.6204C30.8488 39.027 30.8488 39.6838 30.4422 40.0904L25.6656 44.8685C25.4626 45.0711 25.1966 45.1731 24.9306 45.1731Z" fill="white"/>
<path d="M32.6479 40.3951C32.3819 40.3951 32.1144 40.293 31.9119 40.0905C31.7165 39.8941 31.4555 39.7849 31.1779 39.7849C30.8992 39.7849 30.6383 39.893 30.4419 40.0905C30.0353 40.4971 29.3784 40.4971 28.9718 40.0905C28.5652 39.6839 28.5652 39.0271 28.9718 38.6205C29.5601 38.0321 30.3444 37.7068 31.1769 37.7057H31.1779C32.0119 37.7057 32.7946 38.0311 33.384 38.6205C33.7895 39.0281 33.7895 39.6849 33.3829 40.0915C33.1804 40.2941 32.9139 40.3951 32.6479 40.3951Z" fill="white"/>
<path d="M42.201 49.9467C41.935 49.9467 41.6685 49.8446 41.466 49.6421L31.9143 40.0904C31.5077 39.6838 31.5077 39.027 31.9143 38.6204C32.3209 38.2138 32.9778 38.2138 33.3844 38.6204L42.936 48.1721C43.3426 48.5787 43.3426 49.2355 42.936 49.6421C42.7325 49.8446 42.466 49.9467 42.201 49.9467Z" fill="white"/>
<path d="M23.0932 45.9311C22.1617 45.9311 21.2302 45.5762 20.5201 44.8686C19.1023 43.4504 19.1023 41.1418 20.5201 39.7235C20.9267 39.3169 21.5835 39.3169 21.9901 39.7235C22.3967 40.1301 22.3967 40.7869 21.9901 41.1935C21.382 41.8016 21.382 42.7905 21.9901 43.3986C22.5983 44.0067 23.5881 44.0037 24.1962 43.3976C24.6023 42.993 25.2597 42.991 25.6662 43.3996C26.0713 43.8062 26.0713 44.463 25.6637 44.8696C24.9561 45.5772 24.0236 45.9311 23.0932 45.9311Z" fill="white"/>
<path d="M26.0283 66.5116C26.0273 66.5116 26.0273 66.5116 26.0283 66.5116C25.0562 66.5116 24.1435 66.1345 23.4567 65.4472C22.0385 64.0269 22.0395 61.7183 23.4578 60.302L24.1928 59.565C25.5679 58.1909 27.9623 58.1909 29.3374 59.567C30.7557 60.9853 30.7557 63.2919 29.3374 64.7101L28.6014 65.4462C27.913 66.1335 27.0004 66.5116 26.0283 66.5116ZM26.7633 60.5787C26.3486 60.5787 25.9588 60.7396 25.6633 61.034L24.9288 61.7711C24.3192 62.3782 24.3192 63.368 24.9278 63.9771C25.2207 64.269 25.6115 64.4325 26.0273 64.4325H26.0283C26.4445 64.4325 26.8364 64.2705 27.1323 63.9751L27.8684 63.2391C28.4755 62.633 28.4755 61.6442 27.8684 61.0371C27.5724 60.7421 27.1806 60.5787 26.7633 60.5787Z" fill="white"/>
<path d="M22.3535 62.8367C21.3814 62.8367 20.4687 62.4585 19.7824 61.7722C18.3642 60.3545 18.3642 58.0454 19.7824 56.6256L20.5185 55.8895C21.8905 54.517 24.288 54.516 25.6621 55.8906C26.3494 56.5774 26.7281 57.4911 26.7281 58.4631C26.7281 59.4352 26.3494 60.3479 25.6621 61.0362L24.9271 61.7712C24.2393 62.4585 23.3251 62.8367 22.3535 62.8367ZM23.0905 56.9038C22.6743 56.9038 22.2834 57.0652 21.9885 57.3591L21.2525 58.0951C20.6444 58.7032 20.6444 59.6931 21.2525 60.3012C21.5464 60.5946 21.9372 60.7565 22.3535 60.7565C22.7702 60.7565 23.1621 60.5946 23.4586 60.2992L24.1936 59.5641C24.4875 59.2702 24.6499 58.8784 24.6499 58.4611C24.6499 58.0444 24.4875 57.6535 24.1936 57.3581C23.8992 57.0631 23.5063 56.9038 23.0905 56.9038Z" fill="white"/>
<path d="M18.6796 59.1607C17.7085 59.1607 16.7948 58.782 16.1075 58.0947C15.4207 57.411 15.042 56.4973 15.041 55.5252C15.04 54.5521 15.4182 53.6384 16.1065 52.9491L16.8415 52.2141C18.2171 50.8384 20.6151 50.8405 21.9866 52.2141C22.6734 52.9014 23.0521 53.8151 23.0521 54.7871C23.0521 55.7592 22.6734 56.6719 21.9866 57.3597L21.2516 58.0947C20.5633 58.782 19.6496 59.1607 18.6796 59.1607ZM19.4146 53.2278C18.9988 53.2278 18.607 53.3897 18.3115 53.6841L17.5765 54.4191C17.2826 54.714 17.1202 55.1059 17.1202 55.5232C17.1202 55.9399 17.2826 56.3298 17.5765 56.6237C18.1669 57.2145 19.1933 57.2115 19.7816 56.6252L20.5166 55.8902C20.8105 55.5958 20.9729 55.2039 20.9729 54.7871C20.9729 54.3699 20.8105 53.979 20.5166 53.6841C20.2222 53.3887 19.8303 53.2278 19.4146 53.2278Z" fill="white"/>
<path d="M15.0039 55.4858C14.0308 55.4858 13.1181 55.1071 12.4313 54.4203C11.744 53.733 11.3643 52.8193 11.3643 51.8472C11.3643 50.8752 11.744 49.9625 12.4313 49.2742L13.1659 48.5391C14.5405 47.1651 16.9369 47.1651 18.311 48.5391C18.9983 49.2265 19.3775 50.1402 19.3765 51.1122C19.3765 52.0843 18.9983 52.997 18.311 53.6853L17.575 54.4213C16.8897 55.1071 15.976 55.4858 15.0039 55.4858ZM15.7399 49.5528C15.3242 49.5528 14.9323 49.7148 14.6369 50.0092L13.9019 50.7442C13.607 51.0396 13.4445 51.4305 13.4445 51.8472C13.4445 52.264 13.607 52.6538 13.9019 52.9503C14.4907 53.5386 15.5176 53.5386 16.1059 52.9503L16.842 52.2142C17.1364 51.9208 17.2983 51.529 17.2983 51.1122C17.2983 50.6955 17.1374 50.3046 16.842 50.0092C16.5481 49.7148 16.1557 49.5528 15.7399 49.5528Z" fill="white"/>
<path d="M30.4365 66.5125C29.505 66.5125 28.5746 66.1582 27.8665 65.4511C27.4599 65.0445 27.4599 64.3877 27.8665 63.9811C28.2731 63.5745 28.9299 63.5745 29.3365 63.9811C29.9416 64.5872 30.9304 64.5861 31.5416 63.978C32.1487 63.3709 32.1497 62.3811 31.5426 61.773C31.34 61.5704 31.239 61.3044 31.239 61.0379C31.239 60.772 31.3421 60.506 31.5446 60.3029C31.9512 59.8989 32.6081 59.8968 33.0146 60.305C33.3075 60.5984 33.6974 60.7603 34.1136 60.7603H34.1146C34.5304 60.7603 34.9222 60.5984 35.2177 60.3039C35.8248 59.6948 35.8258 58.7065 35.2187 58.0994C35.0156 57.8964 34.9141 57.6304 34.9141 57.3644C34.9141 57.0979 35.0156 56.8319 35.2187 56.6294C35.6248 56.2228 36.2821 56.2228 36.6887 56.6294C37.2958 57.2365 38.2841 57.2354 38.8933 56.6283C39.5004 56.0212 39.5014 55.0314 38.8943 54.4243C38.6918 54.2218 38.5897 53.9553 38.5897 53.6883C38.5897 53.4223 38.6918 53.1558 38.8943 52.9543C39.3009 52.5477 39.9577 52.5477 40.3643 52.9543C40.9526 53.5426 41.978 53.5416 42.5673 52.9522C43.1755 52.3441 43.1765 51.3563 42.5694 50.7492C42.1628 50.3426 42.1628 49.6858 42.5694 49.2792C42.976 48.8731 43.6328 48.8731 44.0394 49.2792C45.4562 50.6964 45.4551 53.004 44.0374 54.4223C43.3501 55.1106 42.4364 55.4888 41.4633 55.4888C41.4506 55.4888 41.4394 55.4888 41.4257 55.4888C41.4364 56.4329 41.0806 57.3796 40.3623 58.0994C39.6521 58.808 38.7207 59.1618 37.7882 59.1618C37.776 59.1618 37.7633 59.1618 37.7501 59.1618C37.7603 60.1055 37.406 61.0527 36.6887 61.773C36.0004 62.4613 35.0867 62.8395 34.1146 62.8395C34.1146 62.8374 34.0898 62.8395 34.0761 62.8395C34.0842 63.7836 33.7299 64.7298 33.0116 65.4491C32.3004 66.1582 31.368 66.5125 30.4365 66.5125Z" fill="white"/>
<path d="M28.6024 65.7557C28.3364 65.7557 28.0704 65.6537 27.8673 65.4511L27.4983 65.0821C27.0917 64.6755 27.0917 64.0187 27.4983 63.6121C27.9049 63.2055 28.5617 63.2055 28.9683 63.6121L29.3374 63.9811C29.744 64.3877 29.744 65.0445 29.3374 65.4511C29.1338 65.6537 28.8673 65.7557 28.6024 65.7557Z" fill="white"/>
<path d="M32.2799 62.0786C32.0139 62.0786 31.7474 61.9771 31.5449 61.774L30.4398 60.669C30.0332 60.2624 30.0332 59.6055 30.4398 59.1989C30.8464 58.7929 31.5033 58.7929 31.9099 59.1989L33.0149 60.304C33.4215 60.7106 33.4215 61.3675 33.0149 61.774C32.8109 61.9771 32.5459 62.0786 32.2799 62.0786Z" fill="white"/>
<path d="M35.9546 58.4029C35.6881 58.4029 35.4221 58.3008 35.2195 58.0983L34.1155 56.9932C33.7089 56.5866 33.7089 55.9283 34.1155 55.5232C34.5221 55.1166 35.1789 55.1166 35.5855 55.5232L36.6896 56.6283C37.0957 57.0344 37.0957 57.6927 36.6896 58.0983C36.4865 58.3019 36.2205 58.4029 35.9546 58.4029Z" fill="white"/>
<path d="M39.6309 54.726C39.365 54.726 39.099 54.624 38.8959 54.4214L37.7919 53.3194C37.3858 52.9138 37.3858 52.256 37.7919 51.8494C38.1985 51.4428 38.8558 51.4428 39.2619 51.8494L40.366 52.9524C40.7726 53.358 40.7726 54.0159 40.366 54.4225C40.1634 54.625 39.8974 54.726 39.6309 54.726Z" fill="white"/>
<path d="M43.3071 51.0508C43.0412 51.0508 42.7752 50.9488 42.5721 50.7463L41.4671 49.6412C41.0605 49.2346 41.0605 48.5778 41.4671 48.1712C41.8737 47.7646 42.5305 47.7646 42.9371 48.1712L44.0422 49.2762C44.4488 49.6828 44.4488 50.3397 44.0422 50.7463C43.8396 50.9498 43.5731 51.0508 43.3071 51.0508Z" fill="white"/>
<path d="M4.71417 43.3311C4.44818 43.3311 4.18219 43.229 3.97915 43.0265L0.304566 39.3534C0.109136 39.158 0 38.8951 0 38.6184C0 38.3428 0.109136 38.0778 0.304566 37.8834L16.477 21.7104C16.6724 21.515 16.9354 21.4059 17.212 21.4059C17.4887 21.4059 17.7526 21.515 17.947 21.7104L21.6211 25.3855C22.0277 25.7921 22.0277 26.449 21.6211 26.8556L5.44919 43.0265C5.24665 43.23 4.98016 43.3311 4.71417 43.3311ZM2.50911 38.6184L4.71417 40.8214L19.4161 26.1206L17.212 23.9155L2.50911 38.6184Z" fill="white"/>
<path d="M50.2846 43.3313C50.0186 43.3313 49.7526 43.2293 49.5495 43.0268L33.3801 26.8589C32.9735 26.4523 32.9735 25.7954 33.3801 25.3888L37.0537 21.7143C37.4436 21.3244 38.1339 21.3244 38.5237 21.7143L54.6957 37.8837C54.8911 38.0791 55.0002 38.343 55.0002 38.6187C55.0002 38.8953 54.8911 39.1593 54.6957 39.3537L51.0196 43.0268C50.817 43.2303 50.551 43.3313 50.2846 43.3313ZM35.5852 26.1239L50.2846 40.8227L52.4906 38.6197L37.7887 23.9188L35.5852 26.1239Z" fill="white"/>
<path d="M27.4998 22.8709C21.1947 22.8709 16.0643 17.7404 16.0643 11.4354C16.0643 5.13041 21.1947 0 27.4998 0C33.8048 0 38.9352 5.13041 38.9352 11.4354C38.9352 17.7404 33.8048 22.8709 27.4998 22.8709ZM27.4998 2.07917C22.3404 2.07917 18.1435 6.27608 18.1435 11.4354C18.1435 16.5948 22.3404 20.7917 27.4998 20.7917C32.6591 20.7917 36.856 16.5948 36.856 11.4354C36.856 6.27608 32.6591 2.07917 27.4998 2.07917Z" fill="white"/>
<path d="M31.6748 16.6323H23.3582C22.783 16.6323 22.3186 16.1674 22.3186 15.5927C22.3186 15.0176 22.783 14.5532 23.3582 14.5532H31.6748C32.25 14.5532 32.7144 15.0176 32.7144 15.5927C32.7144 16.1674 32.2489 16.6323 31.6748 16.6323Z" fill="white"/>
<path d="M27.5161 16.6322C26.941 16.6322 26.4766 16.1672 26.4766 15.5926V6.23734C26.4766 5.66222 26.941 5.19775 27.5161 5.19775C28.0913 5.19775 28.5557 5.66222 28.5557 6.23734V15.5926C28.5557 16.1672 28.0903 16.6322 27.5161 16.6322Z" fill="white"/>
<path d="M31.6748 8.31669H23.3582C22.783 8.31669 22.3186 7.85222 22.3186 7.2771C22.3186 6.70198 22.783 6.23752 23.3582 6.23752H31.6748C32.25 6.23752 32.7144 6.70198 32.7144 7.2771C32.7144 7.85222 32.2489 8.31669 31.6748 8.31669Z" fill="white"/>
<path d="M32.7144 11.4354H30.6353C30.0601 11.4354 29.5957 10.971 29.5957 10.3958C29.5957 9.82072 30.0601 9.35626 30.6353 9.35626H32.7144C33.2895 9.35626 33.754 9.82072 33.754 10.3958C33.754 10.971 33.2885 11.4354 32.7144 11.4354Z" fill="white"/>
<path d="M24.398 11.4356H22.3189C21.7438 11.4356 21.2793 10.9712 21.2793 10.396C21.2793 9.82091 21.7438 9.35645 22.3189 9.35645H24.398C24.9732 9.35645 25.4376 9.82091 25.4376 10.396C25.4376 10.9712 24.9722 11.4356 24.398 11.4356Z" fill="white"/>
</svg>
