<svg width="20" height="20" viewBox="0 0 20 20" fill="none" xmlns="http://www.w3.org/2000/svg">
<path d="M18.3333 5.94946V14.2828C18.3333 14.8353 18.1138 15.3652 17.7231 15.7559C17.3324 16.1466 16.8025 16.3661 16.25 16.3661H3.75001C3.19747 16.3661 2.66757 16.1466 2.27687 15.7559C1.88616 15.3652 1.66667 14.8353 1.66667 14.2828V5.94946" stroke="white" stroke-width="1.4" stroke-linecap="round" stroke-linejoin="round"/>
<path d="M18.3333 5.94954C18.3333 5.39701 18.1138 4.86711 17.7231 4.47641C17.3324 4.0857 16.8025 3.86621 16.25 3.86621H3.75001C3.19747 3.86621 2.66757 4.0857 2.27687 4.47641C1.88616 4.86711 1.66667 5.39701 1.66667 5.94954L8.89584 10.4634C9.22695 10.6704 9.60955 10.7801 10 10.7801C10.3905 10.7801 10.7731 10.6704 11.1042 10.4634L18.3333 5.94954Z" stroke="white" stroke-width="1.4" stroke-linecap="round" stroke-linejoin="round"/>
</svg>
