<svg width="173" height="37" viewBox="0 0 173 37" fill="none" xmlns="http://www.w3.org/2000/svg">
<path fill-rule="evenodd" clip-rule="evenodd" d="M14.6426 13.9222L36.517 1.37149L36.4403 0.101661L10.9323 5.99136C10.2882 6.13795 9.6119 6.02532 9.05108 5.67806C8.49026 5.3308 8.09048 4.77712 7.93904 4.13793L6.97211 0L3.78607 0.189644L11.2362 13.015C11.5684 13.5827 12.113 13.9967 12.7512 14.1666C13.3894 14.3366 14.0694 14.2487 14.6426 13.9222ZM22.3564 23.0788L0.482972 35.6285L0.559697 36.8983L26.0677 31.0086C26.7118 30.8618 27.3883 30.9743 27.9491 31.3216C28.51 31.6689 28.9097 32.2227 29.061 32.8621L30.0289 37L33.2149 36.8104L25.7647 23.986C25.4326 23.4178 24.8876 23.0034 24.2489 22.8334C23.6103 22.6634 22.9298 22.7517 22.3564 23.0788ZM14.0101 22.3867L1.38006 0.648106L0.102299 0.724357L6.02879 26.073C6.17632 26.7132 6.06301 27.3855 5.7136 27.943C5.36419 28.5005 4.80705 28.8979 4.16379 29.0487L0 30.0096L0.190828 33.1749L13.0963 25.771C13.6676 25.4413 14.0844 24.9003 14.2556 24.2661C14.4268 23.632 14.3386 22.9564 14.0101 22.3867ZM22.9909 14.6133L35.6199 36.3519L36.8977 36.2756L30.9712 10.927C30.8234 10.2869 30.9367 9.61464 31.2861 9.05723C31.6356 8.49983 32.1929 8.10258 32.8362 7.95231L37 6.99139L36.8092 3.82512L23.9037 11.23C23.3322 11.5593 22.9153 12.1002 22.7443 12.7343C22.5732 13.3684 22.6618 14.044 22.9909 14.6133Z" fill="white"/>
<path fill-rule="evenodd" clip-rule="evenodd" d="M60.9963 14.5502H62.8396C63.8487 14.5502 65.6694 14.6415 66.8104 14.7547C66.7514 14.3019 66.7514 13.8433 66.8104 13.3905C65.6257 13.4811 63.8487 13.5271 62.8396 13.5271H60.9963V10.3891C60.9963 9.91144 61.0182 8.06966 61.0619 7.52415H61.6105C64.1773 7.52415 66.0425 7.63809 67.2271 7.88782C67.199 7.63097 67.1844 7.37282 67.1834 7.11443C67.1834 6.8647 67.2053 6.45499 67.2271 6.29578C65.5594 6.36368 63.3219 6.40972 62.0717 6.40972C60.8215 6.40972 59.8772 6.36368 59 6.29578C59.11 7.52337 59.1537 11.139 59.1537 14.4371C59.1537 17.7351 59.11 21.4413 59 22.7828H63.2127C64.5511 22.7828 66.4811 22.8086 67.2053 22.8773C67.2053 22.7368 67.1834 22.3505 67.1834 22.1226C67.1834 21.8729 67.2053 21.531 67.2053 21.3952C65.1653 21.5763 62.7733 21.6684 61.6113 21.6684H61.1282C61.0626 20.44 60.9963 17.2567 60.9963 15.7333V14.5502ZM70.0577 22.7828C70.2704 22.7159 70.4927 22.685 70.7156 22.6915C70.9575 22.6915 71.1987 22.7141 71.4617 22.7828C71.3306 18.5982 71.3079 15.3689 71.3079 13.2087C71.3079 12.6858 71.3516 10.503 71.3735 10.0706L77.012 16.2102C79.4476 18.8706 81.444 21.1447 82.958 23.1044H83.2654C83.2436 22.3957 83.221 19.2577 83.221 17.643C83.221 14.2092 83.2428 10.4343 83.3747 6.29578C83.1535 6.35915 82.9242 6.38965 82.6942 6.38631C82.453 6.38631 82.2111 6.36368 81.97 6.29578C82.0574 8.4786 82.1237 11.9124 82.1237 16.5746C82.1237 17.1654 82.1018 17.8701 82.08 18.6895C78.6352 15.0965 74.7519 10.9346 70.6493 6H70.2107V8.56913C70.2107 13.5271 70.1451 21.7137 70.0577 22.7828ZM99.0837 21.7589L99.2148 20.1669C97.6134 21.5092 95.8356 22.1913 94.1468 22.1913C90.4827 22.1913 88.1571 19.3716 88.1571 14.5963C88.1571 9.68434 90.4609 6.90996 94.3005 6.90996C96.4287 6.90996 97.899 7.70599 99.0173 9.47909C99.0173 8.7057 99.1484 7.95572 99.3904 7.18233C97.8982 6.40894 96.1875 6 94.3879 6C89.0788 6 85.744 9.41119 85.744 14.5729C85.744 19.9858 88.7057 23.1044 93.8619 23.1044C96.1875 23.1044 97.9427 22.6236 99.0837 21.7589ZM105.095 22.7828C105.457 22.7183 105.825 22.6877 106.192 22.6915C106.543 22.6915 106.872 22.7141 107.223 22.7828C107.135 21.2529 107.092 19.7209 107.092 18.1885C107.092 17.3246 107.113 16.3241 107.157 15.6647C108.839 12.4967 110.602 9.37269 112.444 6.29578C112.138 6.36368 111.875 6.38631 111.566 6.38631C111.304 6.38631 111.018 6.36368 110.711 6.29578C109.49 9.11823 108.09 11.8602 106.521 14.505C104.831 11.8898 103.361 9.16068 102.154 6.29578C101.74 6.35971 101.322 6.38998 100.904 6.38631C100.465 6.38631 99.9811 6.36368 99.6315 6.29578C101.409 9.38857 103.251 12.6632 105.138 16.051C105.204 17.1201 105.248 18.2338 105.248 19.3482C105.249 20.4853 105.161 21.6223 105.095 22.7828ZM114.113 22.7828C114.332 22.7141 114.508 22.6915 114.772 22.6915C115.013 22.6915 115.253 22.7141 115.517 22.7828C115.386 18.5982 115.363 15.3689 115.363 13.2087C115.363 12.6858 115.408 10.503 115.43 10.0706L121.069 16.2102C123.504 18.8706 125.5 21.1447 127.015 23.1044H127.321C127.3 22.3957 127.277 19.2577 127.277 17.643C127.277 14.2092 127.3 10.4343 127.431 6.29578C127.21 6.35916 126.981 6.38966 126.751 6.38631C126.508 6.38631 126.268 6.36368 126.027 6.29578C126.113 8.4786 126.18 11.9124 126.18 16.5746C126.18 17.1654 126.158 17.8701 126.136 18.6895C122.691 15.0965 118.807 10.9346 114.706 6H114.267V8.56913C114.267 13.5271 114.201 21.7137 114.113 22.7828ZM138.4 23.1044C143.556 23.1044 146.957 19.6674 146.957 14.5729C146.957 9.34252 143.709 6 138.4 6C133.222 6 129.822 9.36515 129.822 14.5729C129.821 19.8266 133.068 23.1044 138.4 23.1044ZM138.4 22.1913C134.385 22.1913 132.125 19.5082 132.125 14.6415C132.125 9.68356 134.429 6.90996 138.4 6.90996C142.481 6.90996 144.653 9.5704 144.653 14.551C144.652 19.4848 142.371 22.1913 138.4 22.1913ZM152.726 22.7828C152.99 22.7141 153.23 22.6915 153.494 22.6915C153.758 22.6915 153.998 22.7141 154.262 22.7828C156.306 17.2579 158.427 11.7616 160.624 6.29578C160.426 6.36368 160.12 6.38631 159.856 6.38631C159.615 6.38631 159.33 6.36368 159.088 6.29578C157.503 11.0503 155.784 15.7594 153.934 20.4174C152.073 15.7499 150.318 11.0415 148.667 6.29578C148.405 6.34105 147.901 6.38631 147.527 6.38631C147.153 6.38631 146.759 6.36368 146.408 6.29578C148.471 11.3895 150.554 16.9149 152.726 22.7828ZM157.682 22.7828C157.883 22.7368 158.213 22.6915 158.453 22.6915C158.717 22.6915 159.002 22.7141 159.221 22.7828C159.966 20.5766 160.734 18.439 161.634 16.3467C162.402 16.3241 163.542 16.3015 164.509 16.3015C165.715 16.3015 167.076 16.3241 167.361 16.3467L167.755 17.302C168.589 19.303 169.225 21.1447 169.753 22.7828C170.147 22.7141 170.542 22.6915 170.937 22.6915C171.332 22.6915 171.705 22.7141 172.079 22.7828C169.741 17.2233 167.488 11.6284 165.321 6H164.882C162.561 11.6279 160.161 17.2228 157.682 22.7828ZM164.509 9.29726C165.694 12.1622 166.352 13.8221 166.506 14.2318L166.901 15.2323C166.439 15.2549 164.596 15.2784 163.786 15.2784C162.973 15.2784 162.403 15.2557 162.03 15.2323L164.509 9.29726ZM59.9373 26.2049C59.6819 26.2457 59.4216 26.2457 59.1662 26.2049C59.206 26.6693 59.2216 27.8977 59.2216 29.0386C59.2216 30.1804 59.206 31.4478 59.1662 31.9121C59.2529 31.8965 59.4261 31.8809 59.5518 31.8809C59.686 31.8809 59.8514 31.8973 59.9373 31.9121C59.8983 31.4478 59.8826 30.1804 59.8826 29.0386C59.8826 27.8969 59.8983 26.6685 59.9373 26.2049ZM65.7935 31.9113C65.8702 31.8885 65.95 31.8779 66.03 31.8801C66.1166 31.8801 66.2032 31.8879 66.2977 31.9113C66.2501 30.4637 66.243 29.3453 66.243 28.5977C66.243 28.4166 66.2586 27.6612 66.2664 27.5106L68.2893 29.6364C69.1633 30.5581 69.8798 31.3448 70.4229 32.0237H70.533C70.5252 31.7787 70.5174 30.6923 70.5174 30.1328C70.5174 28.9442 70.5252 27.6378 70.5728 26.2049C70.4932 26.2268 70.411 26.2373 70.3285 26.2362C70.2419 26.2362 70.1553 26.2284 70.0686 26.2049C70.1006 26.9612 70.124 28.149 70.124 29.7636C70.124 29.9681 70.1162 30.2124 70.1076 30.4957C68.8722 29.2517 67.4784 27.8118 66.0066 26.1035H65.8489V26.9932C65.8481 28.7085 65.8247 31.5414 65.7935 31.9113ZM78.128 26.5975H78.4269C78.9934 26.5975 79.482 26.6209 79.8987 26.7005C79.8674 26.5368 79.8674 26.3686 79.8987 26.2049C79.6154 26.2213 78.4659 26.2362 77.7885 26.2362C77.1587 26.2362 76.191 26.2284 75.6868 26.2049C75.6946 26.2596 75.7024 26.386 75.7024 26.4648C75.7024 26.5194 75.6946 26.6451 75.6868 26.7013C76.0411 26.6381 76.5609 26.5983 77.2219 26.5983H77.4662V29.0784C77.4662 30.2202 77.4498 31.4478 77.4108 31.9121C77.4974 31.8965 77.6706 31.8809 77.7963 31.8809C77.9297 31.8809 78.0952 31.8973 78.1826 31.9121C78.1428 31.4478 78.1272 30.2202 78.1272 29.0784V26.5975H78.128ZM85.8494 29.062H86.5104C86.8725 29.062 87.5257 29.094 87.9354 29.1331C87.9155 28.9763 87.9155 28.8177 87.9354 28.6609C87.5109 28.6921 86.8733 28.7085 86.5104 28.7085H85.8494V27.6214C85.8494 27.4559 85.8572 26.8191 85.8728 26.6295H86.0695C86.9911 26.6295 87.66 26.6685 88.0853 26.7551C88.0648 26.572 88.0648 26.3872 88.0853 26.2042C87.4867 26.2276 86.6844 26.244 86.2349 26.244C85.7862 26.244 85.4475 26.2276 85.133 26.2042C85.1728 26.6295 85.1884 27.8805 85.1884 29.0222C85.1884 30.1632 85.1728 31.4462 85.133 31.9106H86.6446C87.1246 31.9106 87.8176 31.9199 88.0775 31.9441C88.0775 31.8957 88.0697 31.7615 88.0697 31.6827C88.0697 31.596 88.0775 31.4774 88.0775 31.4306C87.3454 31.4938 86.487 31.525 86.0702 31.525H85.897C85.8682 30.8404 85.8524 30.1554 85.8494 29.4702V29.062ZM94.295 29.1323C94.3583 29.1245 94.4051 29.1167 94.4527 29.1167C94.6103 29.1167 94.697 29.1791 94.7914 29.3055L95.6967 30.4699C96.0354 30.903 96.3655 31.3752 96.7362 31.9106C96.8462 31.8949 97.0749 31.8793 97.2239 31.8793C97.366 31.8793 97.5626 31.8871 97.7117 31.9106C97.1217 31.1629 96.1142 29.9353 95.4922 29.1003C96.5785 28.9036 97.1607 28.3363 97.1607 27.5566C97.1607 26.6521 96.5309 26.2034 95.2791 26.2034C94.7516 26.2034 94.3028 26.2346 93.9485 26.2346C93.8541 26.2346 93.7043 26.219 93.5786 26.2034C93.6176 26.6677 93.6333 27.8961 93.6333 29.0371C93.6333 30.1788 93.6176 31.4462 93.5786 31.9106C93.6652 31.8949 93.8385 31.8793 93.9641 31.8793C94.0984 31.8793 94.263 31.8957 94.3497 31.9106C94.3106 31.454 94.295 31.0373 94.295 30.6588V29.1323ZM94.295 28.8732V27.4083C94.295 27.157 94.3028 26.8496 94.3497 26.5429C94.6174 26.5273 94.8374 26.5194 94.9951 26.5194C95.9558 26.5194 96.4357 26.905 96.4357 27.6612C96.4357 28.4877 95.8137 28.8888 94.5697 28.8888C94.478 28.8881 94.3863 28.8829 94.295 28.8732ZM102.78 31.9113C102.856 31.8885 102.936 31.878 103.016 31.8801C103.103 31.8801 103.19 31.8879 103.285 31.9113C103.237 30.4637 103.23 29.3453 103.23 28.5977C103.23 28.4166 103.246 27.6612 103.253 27.5106L105.277 29.6364C106.15 30.5581 106.867 31.3448 107.409 32.0237H107.519C107.511 31.7787 107.504 30.6923 107.504 30.1328C107.504 28.9442 107.511 27.6378 107.558 26.2049C107.48 26.2284 107.394 26.2362 107.315 26.2362C107.228 26.2362 107.142 26.2284 107.056 26.2049C107.086 26.9612 107.11 28.149 107.11 29.7636C107.11 29.9681 107.102 30.2124 107.095 30.4957C105.858 29.2517 104.465 27.8118 102.993 26.1035H102.836V26.9932C102.836 28.7085 102.812 31.5414 102.78 31.9113ZM112.468 31.9113C112.541 31.8957 112.658 31.8801 112.745 31.8801C112.839 31.8801 112.941 31.8879 113.021 31.9113C113.278 31.1571 113.567 30.414 113.887 29.684C114.163 29.6762 114.571 29.6684 114.918 29.6684C115.351 29.6684 115.839 29.6762 115.941 29.684L116.083 30.0149C116.382 30.7079 116.611 31.3455 116.8 31.9121C116.942 31.8887 117.083 31.8809 117.225 31.8809C117.367 31.8809 117.5 31.8887 117.633 31.9121C116.795 29.9886 115.988 28.0522 115.21 26.1035H115.052C114.219 28.0521 113.358 29.9882 112.468 31.9113ZM114.919 27.2437C115.343 28.2356 115.579 28.8107 115.634 28.952L115.776 29.2977C115.611 29.3063 114.95 29.3141 114.658 29.3141C114.367 29.3141 114.163 29.3063 114.029 29.2977L114.919 27.2437ZM124.56 26.5975H124.86C125.427 26.5975 125.915 26.6209 126.331 26.7005C126.3 26.5368 126.3 26.3686 126.331 26.2049C125.628 26.2267 124.925 26.2371 124.222 26.2362C123.592 26.2362 122.624 26.2284 122.12 26.2049C122.129 26.2596 122.136 26.386 122.136 26.4648C122.136 26.5194 122.129 26.6451 122.12 26.7013C122.475 26.6381 122.995 26.5983 123.657 26.5983H123.9V29.0784C123.9 30.2202 123.884 31.4478 123.844 31.9121C123.931 31.8965 124.105 31.8809 124.231 31.8809C124.364 31.8809 124.53 31.8973 124.617 31.9121C124.577 31.4478 124.56 30.2202 124.56 29.0784V26.5975H124.56ZM132.329 26.2049C132.073 26.2455 131.813 26.2455 131.558 26.2049C131.597 26.6693 131.612 27.8977 131.612 29.0386C131.612 30.1804 131.597 31.4478 131.558 31.9121C131.644 31.8965 131.818 31.8809 131.943 31.8809C132.077 31.8809 132.242 31.8973 132.329 31.9121C132.289 31.4478 132.274 30.1804 132.274 29.0386C132.274 27.8969 132.29 26.6685 132.329 26.2049ZM140.876 32.0237C142.727 32.0237 143.947 30.8344 143.947 29.0706C143.947 27.2601 142.782 26.1027 140.876 26.1027C139.02 26.1027 137.799 27.2671 137.799 29.0706C137.799 30.8882 138.964 32.0237 140.876 32.0237ZM140.876 31.7069C139.436 31.7069 138.625 30.7782 138.625 29.0933C138.625 27.3771 139.453 26.4164 140.876 26.4164C142.341 26.4164 143.12 27.3373 143.12 29.0613C143.12 30.7704 142.302 31.7069 140.876 31.7069ZM149.26 31.9113C149.337 31.8885 149.417 31.878 149.497 31.8801C149.584 31.8801 149.669 31.8879 149.764 31.9113C149.716 30.4637 149.709 29.3453 149.709 28.5977C149.709 28.4166 149.726 27.6612 149.733 27.5106L151.756 29.6364C152.629 30.5581 153.346 31.3448 153.89 32.0237H154C153.992 31.7787 153.984 30.6923 153.984 30.1328C153.984 28.9442 153.992 27.6378 154.039 26.2049C153.959 26.2284 153.873 26.2362 153.795 26.2362C153.709 26.2362 153.621 26.2284 153.535 26.2049C153.567 26.9612 153.589 28.149 153.589 29.7636C153.589 29.9681 153.582 30.2124 153.574 30.4957C152.338 29.2517 150.945 27.8118 149.472 26.1035H149.315V26.9932C149.315 28.7085 149.292 31.5414 149.26 31.9113ZM158.949 31.9113C159.02 31.8957 159.139 31.8801 159.226 31.8801C159.32 31.8801 159.422 31.8879 159.5 31.9113C159.769 31.1473 160.044 30.4083 160.366 29.684C160.642 29.6762 161.052 29.6684 161.397 29.6684C161.831 29.6684 162.318 29.6762 162.421 29.684L162.563 30.0149C162.863 30.7079 163.09 31.3455 163.279 31.9121C163.421 31.8887 163.562 31.8809 163.704 31.8809C163.846 31.8809 163.981 31.8887 164.114 31.9121C163.276 29.9887 162.467 28.0522 161.689 26.1035H161.532C160.699 28.0517 159.837 29.9878 158.949 31.9113ZM161.397 27.2437C161.823 28.2356 162.059 28.8107 162.114 28.952L162.256 29.2977C162.09 29.3063 161.429 29.3141 161.138 29.3141C160.846 29.3141 160.641 29.3063 160.507 29.2977L161.397 27.2437ZM169.931 26.2049C169.675 26.2455 169.415 26.2455 169.159 26.2049C169.198 26.6693 169.214 27.8977 169.214 29.0386C169.214 30.1804 169.198 31.4478 169.159 31.9121C169.466 31.8887 169.876 31.8809 170.269 31.8809C170.576 31.8809 171.222 31.8973 172.205 31.9121C172.185 31.7397 172.185 31.5656 172.205 31.3931C171.796 31.479 171.237 31.5266 170.505 31.5266C170.292 31.5266 169.985 31.5188 169.938 31.511C169.9 30.6874 169.879 29.8631 169.875 29.0386C169.876 27.8969 169.891 26.6685 169.931 26.2049Z" fill="white"/>
</svg>
