<svg width="20" height="26" viewBox="0 0 20 26" fill="none" xmlns="http://www.w3.org/2000/svg">
<path d="M16.8608 14.6555C16.8608 20.0344 11.3516 23.3481 10.2068 23.9793C10.1433 24.0143 10.0721 24.0326 9.99964 24.0326C9.92721 24.0326 9.85596 24.0143 9.79254 23.9793C8.64679 23.3481 3.13931 20.0344 3.13931 14.6555C3.13931 10.3675 5.7121 7.36597 10.0001 7.36597C14.288 7.36597 16.8608 10.3675 16.8608 14.6555Z" stroke="white" stroke-width="1.4" stroke-linecap="round" stroke-linejoin="round"/>
<path d="M6.56972 14.2268C6.56972 15.1366 6.93113 16.0091 7.57445 16.6524C8.21777 17.2957 9.0903 17.6571 10.0001 17.6571C10.9099 17.6571 11.7824 17.2957 12.4257 16.6524C13.0691 16.0091 13.4305 15.1366 13.4305 14.2268C13.4305 13.317 13.0691 12.4444 12.4257 11.8011C11.7824 11.1578 10.9099 10.7964 10.0001 10.7964C9.0903 10.7964 8.21777 11.1578 7.57445 11.8011C6.93113 12.4444 6.56972 13.317 6.56972 14.2268V14.2268Z" stroke="white" stroke-width="1.4" stroke-linecap="round" stroke-linejoin="round"/>
</svg>
