<svg width="19" height="19" viewBox="0 0 19 19" fill="none" xmlns="http://www.w3.org/2000/svg">
<path fill-rule="evenodd" clip-rule="evenodd" d="M0.849609 9.93433C0.849609 6.33919 0.849609 4.54162 1.7063 3.24688C2.08886 2.66872 2.584 2.17357 3.16216 1.79102C4.4569 0.934326 6.25447 0.934326 9.84961 0.934326C13.4447 0.934326 15.2423 0.934326 16.5371 1.79102C17.1152 2.17357 17.6104 2.66872 17.9929 3.24688C18.8496 4.54162 18.8496 6.33919 18.8496 9.93433C18.8496 13.5295 18.8496 15.327 17.9929 16.6218C17.6104 17.1999 17.1152 17.6951 16.5371 18.0776C15.2423 18.9343 13.4447 18.9343 9.84961 18.9343C6.25447 18.9343 4.4569 18.9343 3.16216 18.0776C2.584 17.6951 2.08886 17.1999 1.7063 16.6218C0.849609 15.327 0.849609 13.5295 0.849609 9.93433ZM14.5092 9.93437C14.5092 12.5077 12.4231 14.5938 9.84981 14.5938C7.27649 14.5938 5.1904 12.5077 5.1904 9.93437C5.1904 7.36105 7.27649 5.27496 9.84981 5.27496C12.4231 5.27496 14.5092 7.36105 14.5092 9.93437ZM9.84981 13.0174C11.5525 13.0174 12.9328 11.6371 12.9328 9.93437C12.9328 8.23167 11.5525 6.85137 9.84981 6.85137C8.14712 6.85137 6.76681 8.23167 6.76681 9.93437C6.76681 11.6371 8.14712 13.0174 9.84981 13.0174ZM14.6932 6.13569C15.2979 6.13569 15.7881 5.64552 15.7881 5.04087C15.7881 4.43621 15.2979 3.94604 14.6932 3.94604C14.0886 3.94604 13.5984 4.43621 13.5984 5.04087C13.5984 5.64552 14.0886 6.13569 14.6932 6.13569Z" fill="white"/>
</svg>
