<svg width="19" height="19" viewBox="0 0 19 19" fill="none" xmlns="http://www.w3.org/2000/svg">
<path d="M0.849609 2.8534C0.849609 2.27619 1.05232 1.8 1.45772 1.42483C1.86312 1.04964 2.39016 0.862061 3.0388 0.862061C3.67587 0.862061 4.1913 1.04675 4.58513 1.41617C4.99053 1.79713 5.19324 2.29351 5.19324 2.90535C5.19324 3.45946 4.99633 3.92121 4.60251 4.29063C4.19711 4.67158 3.66428 4.86206 3.00405 4.86206H2.98667C2.3496 4.86206 1.83417 4.67158 1.44034 4.29063C1.04651 3.90968 0.849609 3.4306 0.849609 2.8534ZM1.07548 18.0049V6.43782H4.93262V18.0049H1.07548ZM7.06969 18.0049H10.9268V11.546C10.9268 11.142 10.9732 10.8303 11.0658 10.611C11.228 10.2185 11.4741 9.88658 11.8042 9.6153C12.1344 9.34401 12.5484 9.20838 13.0465 9.20838C14.3438 9.20838 14.9925 10.0799 14.9925 11.8231V18.0049H18.8496V11.3729C18.8496 9.66436 18.4442 8.36855 17.6334 7.48543C16.8226 6.60232 15.7512 6.16076 14.4191 6.16076C12.9249 6.16076 11.7608 6.80145 10.9268 8.08284V8.11747H10.9095L10.9268 8.08284V6.43782H7.06969C7.09285 6.80722 7.10444 7.95584 7.10444 9.8837C7.10444 11.8115 7.09285 14.5186 7.06969 18.0049Z" fill="white"/>
</svg>
