<svg width="19" height="16" viewBox="0 0 19 16" fill="none" xmlns="http://www.w3.org/2000/svg">
<path d="M12.8767 0.634833V0.631592H13.7207L14.029 0.693184C14.2346 0.73317 14.4213 0.785572 14.589 0.850405C14.7567 0.915239 14.9191 0.990884 15.0759 1.07732C15.2328 1.16376 15.3751 1.25184 15.5028 1.34152C15.6294 1.43013 15.743 1.52414 15.8437 1.62355C15.9432 1.72404 16.0985 1.74997 16.3095 1.70135C16.5205 1.65272 16.7477 1.58518 16.9912 1.49874C17.2346 1.4123 17.4754 1.31505 17.7135 1.20699C17.9515 1.09893 18.0965 1.03032 18.1485 1.00114C18.1993 0.970899 18.2264 0.95469 18.2296 0.952518L18.2328 0.947656L18.2491 0.939552L18.2653 0.931447L18.2815 0.923343L18.2978 0.915239L18.301 0.910376L18.3059 0.907135L18.3108 0.903893L18.314 0.899031L18.3302 0.894168L18.3465 0.890926L18.3432 0.915239L18.3383 0.939552L18.3302 0.963864L18.3221 0.988177L18.314 1.00439L18.3059 1.02059L18.2978 1.04491C18.2924 1.06111 18.287 1.08272 18.2815 1.10974C18.2761 1.13676 18.2247 1.2448 18.1273 1.43391C18.03 1.62301 17.9082 1.81481 17.7621 2.00931C17.6161 2.20381 17.4851 2.35075 17.3694 2.45018C17.2525 2.55067 17.1751 2.6209 17.1373 2.66088C17.0994 2.70194 17.0534 2.73975 16.9993 2.77434L16.9181 2.82783L16.9019 2.83594L16.8857 2.84404L16.8824 2.8489L16.8776 2.85214L16.8727 2.85539L16.8694 2.86025L16.8532 2.86835L16.837 2.87646L16.8338 2.88132L16.8289 2.88456L16.824 2.8878L16.8208 2.89266L16.8175 2.89753L16.8126 2.90077L16.8078 2.90401L16.8045 2.90887H16.8857L17.3401 2.81162C17.6431 2.74679 17.9326 2.66845 18.2085 2.5766L18.6467 2.43073L18.6954 2.41452L18.7198 2.40641L18.736 2.39831L18.7522 2.3902L18.7685 2.3821L18.7847 2.374L18.8171 2.36913L18.8496 2.36589V2.39831L18.8415 2.40155L18.8334 2.40641L18.8301 2.41128L18.8253 2.41452L18.8204 2.41776L18.8171 2.42262L18.8139 2.42748L18.809 2.43073L18.8042 2.43397L18.8009 2.43883L18.7977 2.44369L18.7928 2.44693L18.7847 2.46314L18.7766 2.47935L18.7717 2.48259C18.7695 2.48583 18.7008 2.57767 18.5656 2.75813C18.4303 2.93967 18.3573 3.03151 18.3465 3.03368C18.3356 3.03692 18.3205 3.05313 18.301 3.0823C18.2826 3.11255 18.1679 3.23304 17.9569 3.44375C17.7459 3.65446 17.5393 3.84193 17.3369 4.00618C17.1335 4.17151 17.0307 4.37465 17.0285 4.61562C17.0253 4.8555 17.0128 5.12673 16.9912 5.42928C16.9695 5.73184 16.929 6.0587 16.8694 6.40989C16.8099 6.76108 16.718 7.15818 16.5935 7.60121C16.4691 8.04423 16.3176 8.47646 16.1391 8.89788C15.9605 9.3193 15.7739 9.69749 15.5791 10.0325C15.3843 10.3674 15.2058 10.6511 15.0435 10.8834C14.8812 11.1157 14.7162 11.3345 14.5484 11.5399C14.3807 11.7452 14.1687 11.9764 13.9122 12.2336C13.6547 12.4897 13.514 12.6301 13.4902 12.655C13.4653 12.6788 13.3593 12.7674 13.1721 12.9208C12.986 13.0753 12.7858 13.2298 12.5715 13.3844C12.3584 13.5378 12.1625 13.6659 11.984 13.7685C11.8054 13.8712 11.5901 13.9884 11.338 14.1202C11.087 14.2531 10.8153 14.3763 10.5232 14.4898C10.231 14.6032 9.92265 14.7086 9.59803 14.8058C9.27341 14.9031 8.95962 14.9787 8.65664 15.0328C8.35368 15.0868 8.01012 15.1327 7.62598 15.1705L7.04979 15.2273V15.2354H5.99479V15.2273L5.85682 15.2192C5.76486 15.2138 5.68911 15.2083 5.62959 15.203C5.57009 15.1976 5.34555 15.1678 4.95601 15.1138C4.56647 15.0598 4.2608 15.0057 4.03897 14.9517C3.81716 14.8977 3.48712 14.795 3.04889 14.6438C2.61066 14.4925 2.23572 14.3396 1.92409 14.1851C1.61355 14.0316 1.41878 13.9344 1.33978 13.8933C1.26187 13.8533 1.17423 13.8036 1.07684 13.7442L0.930764 13.655L0.927534 13.6502L0.922648 13.6469L0.917779 13.6437L0.914533 13.6388L0.898302 13.6307L0.882071 13.6226L0.878841 13.6178L0.873956 13.6145L0.869086 13.6113L0.86584 13.6064L0.86261 13.6016L0.857725 13.5983H0.849609V13.5659L0.86584 13.5691L0.882071 13.574L0.95511 13.5821C1.0038 13.5875 1.13636 13.5956 1.35277 13.6064C1.56919 13.6172 1.79911 13.6172 2.04258 13.6064C2.28604 13.5956 2.53492 13.5713 2.78919 13.5335C3.04348 13.4957 3.34375 13.4308 3.69001 13.339C4.03627 13.2471 4.3544 13.138 4.6444 13.0116C4.9333 12.8841 5.13888 12.789 5.26117 12.7263C5.38235 12.6647 5.56738 12.5502 5.81625 12.3827L6.18956 12.1315L6.1928 12.1266L6.19767 12.1234L6.20256 12.1201L6.20579 12.1152L6.20903 12.1104L6.2139 12.1071L6.21879 12.1039L6.22202 12.099L6.23825 12.0942L6.25448 12.0909L6.25772 12.0747L6.26259 12.0585L6.26748 12.0553L6.27071 12.0504L6.14086 12.0423C6.0543 12.0369 5.97044 12.0315 5.88928 12.0261C5.80813 12.0207 5.68099 11.9964 5.50786 11.9532C5.33474 11.9099 5.14809 11.8451 4.9479 11.7587C4.74772 11.6722 4.55295 11.5696 4.36359 11.4507C4.17424 11.3318 4.03735 11.233 3.95295 11.1541C3.86963 11.0763 3.76142 10.9661 3.62833 10.8234C3.49632 10.6797 3.38162 10.5322 3.28424 10.3809C3.18685 10.2297 3.0938 10.0551 3.00508 9.85742L2.87035 9.56242L2.86223 9.53811L2.85412 9.5138L2.84925 9.49759L2.846 9.48138L2.87035 9.48462L2.8947 9.48949L3.07323 9.5138C3.19227 9.53001 3.37893 9.53541 3.6332 9.53001C3.88749 9.52461 4.06332 9.5138 4.1607 9.49759C4.25809 9.48138 4.3176 9.47057 4.33924 9.46517L4.3717 9.45707L4.41228 9.44897L4.45286 9.44086L4.4561 9.436L4.46097 9.43276L4.46586 9.42952L4.46909 9.42465L4.43662 9.41655L4.40416 9.40845L4.3717 9.40034L4.33924 9.39224L4.30678 9.38413C4.28514 9.37873 4.24728 9.36792 4.19316 9.35172C4.13906 9.33551 3.99299 9.27607 3.75493 9.17342C3.51689 9.07078 3.32752 8.97082 3.18685 8.87357C3.04583 8.77604 2.91137 8.66937 2.78433 8.55426C2.65772 8.43756 2.51869 8.28736 2.36719 8.10367C2.21571 7.91998 2.08046 7.70656 1.96142 7.46344C1.8424 7.22031 1.75313 6.98799 1.69361 6.76647C1.63433 6.54626 1.59522 6.32111 1.57677 6.09383L1.54754 5.75345L1.56377 5.75669L1.58 5.76155L1.59623 5.76966L1.61246 5.77776L1.62869 5.78587L1.64492 5.79397L1.8965 5.90743C2.06423 5.98307 2.27252 6.04791 2.52139 6.10193C2.77027 6.15595 2.91904 6.18568 2.96773 6.19108L3.04077 6.19918H3.18685L3.18362 6.19432L3.17873 6.19108L3.17387 6.18783L3.17062 6.18297L3.16739 6.17811L3.1625 6.17487L3.15763 6.17163L3.15439 6.16676L3.13816 6.15866L3.12193 6.15055L3.1187 6.14569L3.11381 6.14245L3.10894 6.13921L3.1057 6.13435L3.08947 6.12624L3.07323 6.11814L3.07 6.11328C3.06676 6.1111 3.02022 6.07653 2.9304 6.00954C2.84167 5.94147 2.74862 5.85341 2.65123 5.74534C2.55385 5.63728 2.45646 5.52382 2.35908 5.40497C2.26151 5.28584 2.17461 5.15838 2.09938 5.02407C2.02365 4.88901 1.94357 4.71718 1.85917 4.50864C1.77585 4.30118 1.71255 4.09209 1.66927 3.88138C1.626 3.67067 1.60165 3.46267 1.59623 3.25735C1.59082 3.05204 1.59623 2.87646 1.61246 2.73058C1.62869 2.5847 1.66115 2.41991 1.70984 2.23622C1.75854 2.05253 1.82888 1.85803 1.92084 1.65272L2.05881 1.34476L2.06692 1.32045L2.07504 1.29614L2.07992 1.29289L2.08315 1.28803L2.0864 1.28317L2.09127 1.27993L2.09615 1.28317L2.09938 1.28803L2.10263 1.29289L2.1075 1.29614L2.11238 1.29938L2.11561 1.30424L2.11886 1.3091L2.12373 1.31234L2.13185 1.32855L2.13996 1.34476L2.14485 1.348L2.14808 1.35287L2.36719 1.59599C2.51327 1.75808 2.6864 1.93908 2.88658 2.13897C3.08677 2.33887 3.19768 2.44261 3.21931 2.45018C3.24096 2.45881 3.268 2.48366 3.30047 2.52473C3.33293 2.56472 3.44114 2.66035 3.62508 2.81162C3.80904 2.9629 4.0498 3.1385 4.34736 3.3384C4.64493 3.53829 4.97495 3.7355 5.33744 3.93C5.69994 4.1245 6.08948 4.30009 6.50606 4.45678C6.92265 4.61346 7.21481 4.71611 7.38252 4.76474C7.55025 4.81336 7.83699 4.87549 8.24276 4.95113C8.64853 5.02678 8.95422 5.0754 9.1598 5.09701C9.36539 5.11861 9.50607 5.13105 9.5818 5.13429L9.69542 5.13753L9.69219 5.11322L9.6873 5.0889L9.65484 4.8863C9.6332 4.75123 9.62238 4.56213 9.62238 4.319C9.62238 4.07588 9.64132 3.85167 9.67919 3.64636C9.71707 3.44104 9.77388 3.23304 9.84961 3.02233C9.92536 2.81162 9.99949 2.6425 10.072 2.51501C10.1456 2.38858 10.2419 2.24433 10.3609 2.08224C10.4799 1.92016 10.6341 1.75268 10.8235 1.57978C11.0128 1.40689 11.2292 1.25291 11.4727 1.11784C11.7162 0.982779 11.9407 0.880115 12.1463 0.809884C12.3519 0.739653 12.525 0.693719 12.6657 0.672113C12.8063 0.650507 12.8767 0.638075 12.8767 0.634833Z" fill="white"/>
</svg>
