<svg width="21" height="15" viewBox="0 0 21 15" fill="none" xmlns="http://www.w3.org/2000/svg">
<path d="M11.2879 14.9135L7.22568 14.8376C5.91044 14.8111 4.59191 14.864 3.30246 14.5899C1.34089 14.1804 1.20193 12.1725 1.05652 10.4882C0.856153 8.12037 0.933719 5.70955 1.31183 3.36148C1.52528 2.04396 2.36532 1.25779 3.6644 1.17224C8.04975 0.861766 12.4643 0.898561 16.8399 1.04341C17.302 1.05669 17.7673 1.12926 18.223 1.21187C20.4723 1.61479 20.5271 3.89019 20.673 5.80565C20.8184 7.74087 20.757 9.68603 20.479 11.6081C20.2561 13.1995 19.8295 14.534 18.0291 14.6628C15.7733 14.8313 13.5693 14.9669 11.3072 14.9238C11.3073 14.9135 11.2943 14.9135 11.2879 14.9135ZM8.8997 10.8845C10.5996 9.88713 12.2671 8.90634 13.9573 7.91562C12.2542 6.91821 10.5899 5.93742 8.8997 4.9467V10.8845Z" fill="white"/>
</svg>
